%TF.GenerationSoftware,KiCad,Pcbnew,9.0.2*%
%TF.CreationDate,2025-09-10T19:30:47-05:00*%
%TF.ProjectId,EE101_Board,45453130-315f-4426-9f61-72642e6b6963,rev?*%
%TF.SameCoordinates,Original*%
%TF.FileFunction,Copper,L1,Top*%
%TF.FilePolarity,Positive*%
%FSLAX46Y46*%
G04 Gerber Fmt 4.6, Leading zero omitted, Abs format (unit mm)*
G04 Created by KiCad (PCBNEW 9.0.2) date 2025-09-10 19:30:47*
%MOMM*%
%LPD*%
G01*
G04 APERTURE LIST*
G04 Aperture macros list*
%AMRoundRect*
0 Rectangle with rounded corners*
0 $1 Rounding radius*
0 $2 $3 $4 $5 $6 $7 $8 $9 X,Y pos of 4 corners*
0 Add a 4 corners polygon primitive as box body*
4,1,4,$2,$3,$4,$5,$6,$7,$8,$9,$2,$3,0*
0 Add four circle primitives for the rounded corners*
1,1,$1+$1,$2,$3*
1,1,$1+$1,$4,$5*
1,1,$1+$1,$6,$7*
1,1,$1+$1,$8,$9*
0 Add four rect primitives between the rounded corners*
20,1,$1+$1,$2,$3,$4,$5,0*
20,1,$1+$1,$4,$5,$6,$7,0*
20,1,$1+$1,$6,$7,$8,$9,0*
20,1,$1+$1,$8,$9,$2,$3,0*%
G04 Aperture macros list end*
%TA.AperFunction,SMDPad,CuDef*%
%ADD10RoundRect,0.375521X0.751041X-1.657291X0.751041X1.657291X-0.751041X1.657291X-0.751041X-1.657291X0*%
%TD*%
%TA.AperFunction,SMDPad,CuDef*%
%ADD11RoundRect,0.365389X-5.534611X4.384611X-5.534611X-4.384611X5.534611X-4.384611X5.534611X4.384611X0*%
%TD*%
%TA.AperFunction,SMDPad,CuDef*%
%ADD12RoundRect,0.383855X0.767707X-1.657160X0.767707X1.657160X-0.767707X1.657160X-0.767707X-1.657160X0*%
%TD*%
%TA.AperFunction,SMDPad,CuDef*%
%ADD13R,2.350000X1.550000*%
%TD*%
%TA.AperFunction,ComponentPad*%
%ADD14C,1.222000*%
%TD*%
%TA.AperFunction,ComponentPad*%
%ADD15R,1.222000X1.222000*%
%TD*%
%TA.AperFunction,SMDPad,CuDef*%
%ADD16R,2.350000X6.000000*%
%TD*%
%TA.AperFunction,ComponentPad*%
%ADD17RoundRect,0.249999X0.850001X0.850001X-0.850001X0.850001X-0.850001X-0.850001X0.850001X-0.850001X0*%
%TD*%
%TA.AperFunction,ComponentPad*%
%ADD18C,2.200000*%
%TD*%
%TA.AperFunction,SMDPad,CuDef*%
%ADD19R,2.400000X2.550000*%
%TD*%
%TA.AperFunction,SMDPad,CuDef*%
%ADD20R,2.900000X2.550000*%
%TD*%
%TA.AperFunction,SMDPad,CuDef*%
%ADD21R,1.200000X2.700000*%
%TD*%
%TA.AperFunction,SMDPad,CuDef*%
%ADD22R,7.800000X9.600000*%
%TD*%
%TA.AperFunction,SMDPad,CuDef*%
%ADD23RoundRect,0.250000X-0.400000X-0.625000X0.400000X-0.625000X0.400000X0.625000X-0.400000X0.625000X0*%
%TD*%
%TA.AperFunction,ComponentPad*%
%ADD24R,2.100000X2.100000*%
%TD*%
%TA.AperFunction,ComponentPad*%
%ADD25C,2.100000*%
%TD*%
%TA.AperFunction,ViaPad*%
%ADD26C,0.600000*%
%TD*%
%TA.AperFunction,Conductor*%
%ADD27C,0.200000*%
%TD*%
G04 APERTURE END LIST*
D10*
%TO.P,Q1,1,G*%
%TO.N,Net-(Q1-G)*%
X101100000Y-79750000D03*
D11*
%TO.P,Q1,2,D*%
%TO.N,Net-(D1-K)*%
X104950000Y-67350000D03*
D12*
%TO.P,Q1,3,S*%
%TO.N,Net-(Q1-S)*%
X108600000Y-79750000D03*
%TD*%
D13*
%TO.P,D5,2,A*%
%TO.N,0*%
X94150000Y-77100000D03*
%TO.P,D5,1,K*%
%TO.N,Net-(D5-K)*%
X89850000Y-77100000D03*
%TD*%
D14*
%TO.P,RV1,3,3*%
%TO.N,0*%
X94540000Y-70100000D03*
%TO.P,RV1,2,2*%
%TO.N,Net-(Q1-G)*%
X92000000Y-67560000D03*
D15*
%TO.P,RV1,1,1*%
%TO.N,Net-(D5-K)*%
X89460000Y-70100000D03*
%TD*%
D16*
%TO.P,C1,1*%
%TO.N,Net-(D1-K)*%
X79000000Y-65750000D03*
%TO.P,C1,2*%
%TO.N,0*%
X79000000Y-78450000D03*
%TD*%
D17*
%TO.P,D3,1,K*%
%TO.N,Net-(D1-A)*%
X67080000Y-89840000D03*
D18*
%TO.P,D3,2,A*%
%TO.N,0*%
X56920000Y-89840000D03*
%TD*%
D19*
%TO.P,J1,R*%
%TO.N,unconnected-(J1-PadR)*%
X59000000Y-78000000D03*
%TO.P,J1,S*%
%TO.N,Net-(D1-A)*%
X57100000Y-85350000D03*
D20*
%TO.P,J1,T*%
%TO.N,Net-(D2-K)*%
X66400000Y-85350000D03*
%TD*%
D17*
%TO.P,D1,1,K*%
%TO.N,Net-(D1-K)*%
X67080000Y-68840000D03*
D18*
%TO.P,D1,2,A*%
%TO.N,Net-(D1-A)*%
X56920000Y-68840000D03*
%TD*%
D21*
%TO.P,R1,1*%
%TO.N,Net-(D1-K)*%
X89650000Y-64100000D03*
%TO.P,R1,2*%
%TO.N,Net-(D5-K)*%
X94350000Y-64100000D03*
%TD*%
D22*
%TO.P,C2,1*%
%TO.N,Net-(Q1-S)*%
X87250000Y-92100000D03*
%TO.P,C2,2*%
%TO.N,0*%
X74750000Y-92100000D03*
%TD*%
D23*
%TO.P,R2,1*%
%TO.N,Net-(Q1-S)*%
X89450000Y-81100000D03*
%TO.P,R2,2*%
%TO.N,0*%
X92550000Y-81100000D03*
%TD*%
D17*
%TO.P,D2,1,K*%
%TO.N,Net-(D2-K)*%
X67080000Y-95000000D03*
D18*
%TO.P,D2,2,A*%
%TO.N,0*%
X56920000Y-95000000D03*
%TD*%
D17*
%TO.P,D4,1,K*%
%TO.N,Net-(D1-K)*%
X67080000Y-73000000D03*
D18*
%TO.P,D4,2,A*%
%TO.N,Net-(D2-K)*%
X56920000Y-73000000D03*
%TD*%
D24*
%TO.P,J4,1,Pin_1*%
%TO.N,Net-(J4-Pin_1)*%
X123475000Y-83225000D03*
D25*
X115275000Y-83225000D03*
%TO.P,J4,2,Pin_2*%
%TO.N,0*%
X123475000Y-88225000D03*
X115275000Y-88225000D03*
%TD*%
D24*
%TO.P,J3,1,Pin_1*%
%TO.N,Net-(J3-Pin_1)*%
X123575000Y-98500000D03*
D25*
X115375000Y-98500000D03*
%TO.P,J3,2,Pin_2*%
%TO.N,0*%
X123575000Y-103500000D03*
X115375000Y-103500000D03*
%TD*%
D26*
%TO.N,0*%
X92600000Y-81100000D03*
%TO.N,Net-(Q1-S)*%
X81300000Y-82400000D03*
%TO.N,Net-(U1-ROUT)*%
X84500000Y-83900000D03*
X88700000Y-85200000D03*
X98300000Y-83000000D03*
X90300000Y-85200000D03*
%TO.N,Net-(U1-LOUT)*%
X92900000Y-84600000D03*
X102400000Y-88900000D03*
X69699994Y-79700000D03*
X74000000Y-84100000D03*
%TO.N,Net-(Q1-S)*%
X81700000Y-75400000D03*
X74900000Y-78700000D03*
X84282477Y-81255397D03*
X89400000Y-81000000D03*
X87500000Y-91900000D03*
%TO.N,Net-(C14-Pad2)*%
X95700000Y-94600000D03*
%TO.N,Net-(U1-RIN)*%
X70499997Y-79700000D03*
X84165687Y-73934313D03*
%TO.N,Net-(U1-LIN)*%
X71300000Y-79700000D03*
X83600000Y-74500000D03*
%TO.N,Net-(U1-VCLAMP)*%
X84575000Y-82000000D03*
X87000000Y-82100000D03*
%TO.N,Net-(Q1-S)*%
X106000000Y-79600000D03*
%TO.N,Net-(C14-Pad2)*%
X95700265Y-85499735D03*
%TO.N,0*%
X115150000Y-90950000D03*
X115375000Y-101025000D03*
X77000000Y-88500000D03*
X79891994Y-82054853D03*
%TD*%
D27*
%TO.N,Net-(D1-K)*%
X89650000Y-64100000D02*
X91301000Y-62449000D01*
X91301000Y-62449000D02*
X100049000Y-62449000D01*
X100049000Y-62449000D02*
X104950000Y-67350000D01*
%TO.N,Net-(Q1-S)*%
X106000000Y-79600000D02*
X106150000Y-79750000D01*
X106150000Y-79750000D02*
X108600000Y-79750000D01*
%TO.N,Net-(Q1-G)*%
X98550000Y-79750000D02*
X101100000Y-79750000D01*
%TO.N,Net-(Q1-S)*%
X81300000Y-82400000D02*
X81300000Y-75800000D01*
X81300000Y-75800000D02*
X81700000Y-75400000D01*
%TO.N,Net-(U1-ROUT)*%
X90300000Y-85200000D02*
X92500000Y-83000000D01*
X92500000Y-83000000D02*
X98300000Y-83000000D01*
X90300000Y-85200000D02*
X90500000Y-85200000D01*
X87400000Y-83900000D02*
X88700000Y-85200000D01*
X84500000Y-83900000D02*
X87400000Y-83900000D01*
%TO.N,Net-(U1-LOUT)*%
X92900000Y-84600000D02*
X98100000Y-84600000D01*
X98100000Y-84600000D02*
X102400000Y-88900000D01*
%TO.N,Net-(C14-Pad2)*%
X95700265Y-85499735D02*
X95700000Y-85500000D01*
X95700000Y-85500000D02*
X95700000Y-94600000D01*
%TO.N,Net-(U1-LOUT)*%
X69699994Y-79700000D02*
X69699994Y-79799994D01*
X69699994Y-79799994D02*
X74000000Y-84100000D01*
%TO.N,Net-(Q1-S)*%
X76699000Y-74901000D02*
X81200000Y-74901000D01*
X74900000Y-78700000D02*
X74200000Y-78000000D01*
X81201000Y-74901000D02*
X81700000Y-75400000D01*
X74200000Y-78000000D02*
X74200000Y-77400000D01*
X74200000Y-77400000D02*
X76699000Y-74901000D01*
X81200000Y-74901000D02*
X81201000Y-74901000D01*
X84437874Y-81100000D02*
X84282477Y-81255397D01*
X89450000Y-81100000D02*
X84437874Y-81100000D01*
%TO.N,Net-(U1-RIN)*%
X76250057Y-73900000D02*
X70499997Y-79650060D01*
X70499997Y-79650060D02*
X70499997Y-79700000D01*
X84131374Y-73900000D02*
X76250057Y-73900000D01*
X84165687Y-73934313D02*
X84131374Y-73900000D01*
%TO.N,Net-(U1-LIN)*%
X76500000Y-74500000D02*
X71300000Y-79700000D01*
X83600000Y-74500000D02*
X76500000Y-74500000D01*
%TO.N,Net-(U1-VCLAMP)*%
X84675000Y-82100000D02*
X84575000Y-82000000D01*
X87000000Y-82100000D02*
X84675000Y-82100000D01*
%TO.N,0*%
X115375000Y-101025000D02*
X118500000Y-97900000D01*
X115100000Y-90900000D02*
X115100000Y-90800000D01*
X118500000Y-97900000D02*
X118500000Y-94300000D01*
X118500000Y-94300000D02*
X115150000Y-90950000D01*
X115100000Y-90900000D02*
X115150000Y-90950000D01*
X56920000Y-89840000D02*
X63481000Y-96401000D01*
X63481000Y-96401000D02*
X70449000Y-96401000D01*
X70449000Y-96401000D02*
X74750000Y-92100000D01*
X78450000Y-88400000D02*
X74750000Y-92100000D01*
X79891994Y-82054853D02*
X79891994Y-79341994D01*
X79891994Y-79341994D02*
X79000000Y-78450000D01*
%TO.N,Net-(D1-K)*%
X68080000Y-68840000D02*
X75910000Y-68840000D01*
X68160000Y-73000000D02*
X68160000Y-68920000D01*
X75910000Y-68840000D02*
X79000000Y-65750000D01*
X68160000Y-68920000D02*
X68080000Y-68840000D01*
X88000000Y-65750000D02*
X89650000Y-64100000D01*
X79000000Y-65750000D02*
X88000000Y-65750000D01*
%TO.N,0*%
X94150000Y-77100000D02*
X94150000Y-70490000D01*
X74750000Y-92100000D02*
X74750000Y-82250000D01*
X92550000Y-81100000D02*
X92550000Y-78700000D01*
X94150000Y-70490000D02*
X94540000Y-70100000D01*
X92550000Y-78700000D02*
X94150000Y-77100000D01*
X79000000Y-78000000D02*
X79000000Y-78450000D01*
X74750000Y-82250000D02*
X78550000Y-78450000D01*
X78550000Y-78450000D02*
X79000000Y-78450000D01*
%TO.N,Net-(Q1-S)*%
X103524000Y-82276000D02*
X106050000Y-79750000D01*
X89607443Y-81257443D02*
X89450000Y-81100000D01*
X90626000Y-82276000D02*
X103524000Y-82276000D01*
X89450000Y-89900000D02*
X87250000Y-92100000D01*
X89450000Y-81100000D02*
X90626000Y-82276000D01*
X89450000Y-81100000D02*
X89450000Y-89900000D01*
%TO.N,Net-(D1-A)*%
X66140000Y-89840000D02*
X68080000Y-89840000D01*
X56160000Y-68840000D02*
X57920000Y-68840000D01*
X53000000Y-82000000D02*
X53000000Y-72000000D01*
X61650000Y-85350000D02*
X57100000Y-85350000D01*
X57100000Y-85350000D02*
X56350000Y-85350000D01*
X53000000Y-72000000D02*
X56160000Y-68840000D01*
X56350000Y-85350000D02*
X53000000Y-82000000D01*
X61650000Y-85350000D02*
X66140000Y-89840000D01*
%TO.N,Net-(D2-K)*%
X55000000Y-83000000D02*
X54000000Y-82000000D01*
X54000000Y-82000000D02*
X54000000Y-75000000D01*
X70000000Y-93080000D02*
X68080000Y-95000000D01*
X66400000Y-85350000D02*
X70000000Y-88950000D01*
X64050000Y-83000000D02*
X55000000Y-83000000D01*
X70000000Y-88950000D02*
X70000000Y-93080000D01*
X54000000Y-75000000D02*
X56000000Y-73000000D01*
X56000000Y-73000000D02*
X58000000Y-73000000D01*
X66400000Y-85350000D02*
X64050000Y-83000000D01*
%TO.N,Net-(D5-K)*%
X89850000Y-70490000D02*
X89460000Y-70100000D01*
X89460000Y-70100000D02*
X89460000Y-68190000D01*
X89460000Y-68190000D02*
X93550000Y-64100000D01*
X89850000Y-77100000D02*
X89850000Y-70490000D01*
X93550000Y-64100000D02*
X94350000Y-64100000D01*
%TO.N,Net-(Q1-G)*%
X92000000Y-67560000D02*
X93289763Y-67560000D01*
X96199000Y-70469237D02*
X96199000Y-77399000D01*
X93289763Y-67560000D02*
X96199000Y-70469237D01*
X96199000Y-77399000D02*
X98550000Y-79750000D01*
%TD*%
M02*
