%TF.GenerationSoftware,KiCad,Pcbnew,9.0.2*%
%TF.CreationDate,2025-09-10T19:30:47-05:00*%
%TF.ProjectId,EE101_Board,45453130-315f-4426-9f61-72642e6b6963,rev?*%
%TF.SameCoordinates,Original*%
%TF.FileFunction,Legend,Bot*%
%TF.FilePolarity,Positive*%
%FSLAX46Y46*%
G04 Gerber Fmt 4.6, Leading zero omitted, Abs format (unit mm)*
G04 Created by KiCad (PCBNEW 9.0.2) date 2025-09-10 19:30:47*
%MOMM*%
%LPD*%
G01*
G04 APERTURE LIST*
%ADD10C,0.150000*%
%ADD11C,0.254000*%
%ADD12C,0.152400*%
%ADD13C,0.000000*%
%ADD14C,0.200000*%
%ADD15C,0.100000*%
%ADD16C,0.120000*%
G04 APERTURE END LIST*
D10*
X80732904Y-73054819D02*
X80732904Y-73864342D01*
X80732904Y-73864342D02*
X80685285Y-73959580D01*
X80685285Y-73959580D02*
X80637666Y-74007200D01*
X80637666Y-74007200D02*
X80542428Y-74054819D01*
X80542428Y-74054819D02*
X80351952Y-74054819D01*
X80351952Y-74054819D02*
X80256714Y-74007200D01*
X80256714Y-74007200D02*
X80209095Y-73959580D01*
X80209095Y-73959580D02*
X80161476Y-73864342D01*
X80161476Y-73864342D02*
X80161476Y-73054819D01*
X79161476Y-74054819D02*
X79732904Y-74054819D01*
X79447190Y-74054819D02*
X79447190Y-73054819D01*
X79447190Y-73054819D02*
X79542428Y-73197676D01*
X79542428Y-73197676D02*
X79637666Y-73292914D01*
X79637666Y-73292914D02*
X79732904Y-73340533D01*
X78549999Y-73004819D02*
X78549999Y-73242914D01*
X78788094Y-73147676D02*
X78549999Y-73242914D01*
X78549999Y-73242914D02*
X78311904Y-73147676D01*
X78692856Y-73433390D02*
X78549999Y-73242914D01*
X78549999Y-73242914D02*
X78407142Y-73433390D01*
D11*
X83941428Y-90703365D02*
X84001904Y-90763842D01*
X84001904Y-90763842D02*
X84183333Y-90824318D01*
X84183333Y-90824318D02*
X84304285Y-90824318D01*
X84304285Y-90824318D02*
X84485714Y-90763842D01*
X84485714Y-90763842D02*
X84606666Y-90642889D01*
X84606666Y-90642889D02*
X84667143Y-90521937D01*
X84667143Y-90521937D02*
X84727619Y-90280032D01*
X84727619Y-90280032D02*
X84727619Y-90098603D01*
X84727619Y-90098603D02*
X84667143Y-89856699D01*
X84667143Y-89856699D02*
X84606666Y-89735746D01*
X84606666Y-89735746D02*
X84485714Y-89614794D01*
X84485714Y-89614794D02*
X84304285Y-89554318D01*
X84304285Y-89554318D02*
X84183333Y-89554318D01*
X84183333Y-89554318D02*
X84001904Y-89614794D01*
X84001904Y-89614794D02*
X83941428Y-89675270D01*
X82731904Y-90824318D02*
X83457619Y-90824318D01*
X83094762Y-90824318D02*
X83094762Y-89554318D01*
X83094762Y-89554318D02*
X83215714Y-89735746D01*
X83215714Y-89735746D02*
X83336666Y-89856699D01*
X83336666Y-89856699D02*
X83457619Y-89917175D01*
X82308571Y-89554318D02*
X81461904Y-89554318D01*
X81461904Y-89554318D02*
X82006190Y-90824318D01*
X116529318Y-85226667D02*
X117436461Y-85226667D01*
X117436461Y-85226667D02*
X117617889Y-85166190D01*
X117617889Y-85166190D02*
X117738842Y-85045238D01*
X117738842Y-85045238D02*
X117799318Y-84863809D01*
X117799318Y-84863809D02*
X117799318Y-84742857D01*
X116952651Y-86375714D02*
X117799318Y-86375714D01*
X116468842Y-86073333D02*
X117375984Y-85770952D01*
X117375984Y-85770952D02*
X117375984Y-86557143D01*
D10*
X73505357Y-79929580D02*
X73552976Y-79977200D01*
X73552976Y-79977200D02*
X73695833Y-80024819D01*
X73695833Y-80024819D02*
X73791071Y-80024819D01*
X73791071Y-80024819D02*
X73933928Y-79977200D01*
X73933928Y-79977200D02*
X74029166Y-79881961D01*
X74029166Y-79881961D02*
X74076785Y-79786723D01*
X74076785Y-79786723D02*
X74124404Y-79596247D01*
X74124404Y-79596247D02*
X74124404Y-79453390D01*
X74124404Y-79453390D02*
X74076785Y-79262914D01*
X74076785Y-79262914D02*
X74029166Y-79167676D01*
X74029166Y-79167676D02*
X73933928Y-79072438D01*
X73933928Y-79072438D02*
X73791071Y-79024819D01*
X73791071Y-79024819D02*
X73695833Y-79024819D01*
X73695833Y-79024819D02*
X73552976Y-79072438D01*
X73552976Y-79072438D02*
X73505357Y-79120057D01*
X72552976Y-80024819D02*
X73124404Y-80024819D01*
X72838690Y-80024819D02*
X72838690Y-79024819D01*
X72838690Y-79024819D02*
X72933928Y-79167676D01*
X72933928Y-79167676D02*
X73029166Y-79262914D01*
X73029166Y-79262914D02*
X73124404Y-79310533D01*
X72172023Y-79120057D02*
X72124404Y-79072438D01*
X72124404Y-79072438D02*
X72029166Y-79024819D01*
X72029166Y-79024819D02*
X71791071Y-79024819D01*
X71791071Y-79024819D02*
X71695833Y-79072438D01*
X71695833Y-79072438D02*
X71648214Y-79120057D01*
X71648214Y-79120057D02*
X71600595Y-79215295D01*
X71600595Y-79215295D02*
X71600595Y-79310533D01*
X71600595Y-79310533D02*
X71648214Y-79453390D01*
X71648214Y-79453390D02*
X72219642Y-80024819D01*
X72219642Y-80024819D02*
X71600595Y-80024819D01*
X102766666Y-67984580D02*
X102814285Y-68032200D01*
X102814285Y-68032200D02*
X102957142Y-68079819D01*
X102957142Y-68079819D02*
X103052380Y-68079819D01*
X103052380Y-68079819D02*
X103195237Y-68032200D01*
X103195237Y-68032200D02*
X103290475Y-67936961D01*
X103290475Y-67936961D02*
X103338094Y-67841723D01*
X103338094Y-67841723D02*
X103385713Y-67651247D01*
X103385713Y-67651247D02*
X103385713Y-67508390D01*
X103385713Y-67508390D02*
X103338094Y-67317914D01*
X103338094Y-67317914D02*
X103290475Y-67222676D01*
X103290475Y-67222676D02*
X103195237Y-67127438D01*
X103195237Y-67127438D02*
X103052380Y-67079819D01*
X103052380Y-67079819D02*
X102957142Y-67079819D01*
X102957142Y-67079819D02*
X102814285Y-67127438D01*
X102814285Y-67127438D02*
X102766666Y-67175057D01*
X102290475Y-68079819D02*
X102099999Y-68079819D01*
X102099999Y-68079819D02*
X102004761Y-68032200D01*
X102004761Y-68032200D02*
X101957142Y-67984580D01*
X101957142Y-67984580D02*
X101861904Y-67841723D01*
X101861904Y-67841723D02*
X101814285Y-67651247D01*
X101814285Y-67651247D02*
X101814285Y-67270295D01*
X101814285Y-67270295D02*
X101861904Y-67175057D01*
X101861904Y-67175057D02*
X101909523Y-67127438D01*
X101909523Y-67127438D02*
X102004761Y-67079819D01*
X102004761Y-67079819D02*
X102195237Y-67079819D01*
X102195237Y-67079819D02*
X102290475Y-67127438D01*
X102290475Y-67127438D02*
X102338094Y-67175057D01*
X102338094Y-67175057D02*
X102385713Y-67270295D01*
X102385713Y-67270295D02*
X102385713Y-67508390D01*
X102385713Y-67508390D02*
X102338094Y-67603628D01*
X102338094Y-67603628D02*
X102290475Y-67651247D01*
X102290475Y-67651247D02*
X102195237Y-67698866D01*
X102195237Y-67698866D02*
X102004761Y-67698866D01*
X102004761Y-67698866D02*
X101909523Y-67651247D01*
X101909523Y-67651247D02*
X101861904Y-67603628D01*
X101861904Y-67603628D02*
X101814285Y-67508390D01*
D11*
X93641428Y-103078365D02*
X93701904Y-103138842D01*
X93701904Y-103138842D02*
X93883333Y-103199318D01*
X93883333Y-103199318D02*
X94004285Y-103199318D01*
X94004285Y-103199318D02*
X94185714Y-103138842D01*
X94185714Y-103138842D02*
X94306666Y-103017889D01*
X94306666Y-103017889D02*
X94367143Y-102896937D01*
X94367143Y-102896937D02*
X94427619Y-102655032D01*
X94427619Y-102655032D02*
X94427619Y-102473603D01*
X94427619Y-102473603D02*
X94367143Y-102231699D01*
X94367143Y-102231699D02*
X94306666Y-102110746D01*
X94306666Y-102110746D02*
X94185714Y-101989794D01*
X94185714Y-101989794D02*
X94004285Y-101929318D01*
X94004285Y-101929318D02*
X93883333Y-101929318D01*
X93883333Y-101929318D02*
X93701904Y-101989794D01*
X93701904Y-101989794D02*
X93641428Y-102050270D01*
X92431904Y-103199318D02*
X93157619Y-103199318D01*
X92794762Y-103199318D02*
X92794762Y-101929318D01*
X92794762Y-101929318D02*
X92915714Y-102110746D01*
X92915714Y-102110746D02*
X93036666Y-102231699D01*
X93036666Y-102231699D02*
X93157619Y-102292175D01*
X91282857Y-101929318D02*
X91887619Y-101929318D01*
X91887619Y-101929318D02*
X91948095Y-102534080D01*
X91948095Y-102534080D02*
X91887619Y-102473603D01*
X91887619Y-102473603D02*
X91766666Y-102413127D01*
X91766666Y-102413127D02*
X91464285Y-102413127D01*
X91464285Y-102413127D02*
X91343333Y-102473603D01*
X91343333Y-102473603D02*
X91282857Y-102534080D01*
X91282857Y-102534080D02*
X91222380Y-102655032D01*
X91222380Y-102655032D02*
X91222380Y-102957413D01*
X91222380Y-102957413D02*
X91282857Y-103078365D01*
X91282857Y-103078365D02*
X91343333Y-103138842D01*
X91343333Y-103138842D02*
X91464285Y-103199318D01*
X91464285Y-103199318D02*
X91766666Y-103199318D01*
X91766666Y-103199318D02*
X91887619Y-103138842D01*
X91887619Y-103138842D02*
X91948095Y-103078365D01*
D10*
X103892857Y-95784580D02*
X103940476Y-95832200D01*
X103940476Y-95832200D02*
X104083333Y-95879819D01*
X104083333Y-95879819D02*
X104178571Y-95879819D01*
X104178571Y-95879819D02*
X104321428Y-95832200D01*
X104321428Y-95832200D02*
X104416666Y-95736961D01*
X104416666Y-95736961D02*
X104464285Y-95641723D01*
X104464285Y-95641723D02*
X104511904Y-95451247D01*
X104511904Y-95451247D02*
X104511904Y-95308390D01*
X104511904Y-95308390D02*
X104464285Y-95117914D01*
X104464285Y-95117914D02*
X104416666Y-95022676D01*
X104416666Y-95022676D02*
X104321428Y-94927438D01*
X104321428Y-94927438D02*
X104178571Y-94879819D01*
X104178571Y-94879819D02*
X104083333Y-94879819D01*
X104083333Y-94879819D02*
X103940476Y-94927438D01*
X103940476Y-94927438D02*
X103892857Y-94975057D01*
X102940476Y-95879819D02*
X103511904Y-95879819D01*
X103226190Y-95879819D02*
X103226190Y-94879819D01*
X103226190Y-94879819D02*
X103321428Y-95022676D01*
X103321428Y-95022676D02*
X103416666Y-95117914D01*
X103416666Y-95117914D02*
X103511904Y-95165533D01*
X102321428Y-94879819D02*
X102226190Y-94879819D01*
X102226190Y-94879819D02*
X102130952Y-94927438D01*
X102130952Y-94927438D02*
X102083333Y-94975057D01*
X102083333Y-94975057D02*
X102035714Y-95070295D01*
X102035714Y-95070295D02*
X101988095Y-95260771D01*
X101988095Y-95260771D02*
X101988095Y-95498866D01*
X101988095Y-95498866D02*
X102035714Y-95689342D01*
X102035714Y-95689342D02*
X102083333Y-95784580D01*
X102083333Y-95784580D02*
X102130952Y-95832200D01*
X102130952Y-95832200D02*
X102226190Y-95879819D01*
X102226190Y-95879819D02*
X102321428Y-95879819D01*
X102321428Y-95879819D02*
X102416666Y-95832200D01*
X102416666Y-95832200D02*
X102464285Y-95784580D01*
X102464285Y-95784580D02*
X102511904Y-95689342D01*
X102511904Y-95689342D02*
X102559523Y-95498866D01*
X102559523Y-95498866D02*
X102559523Y-95260771D01*
X102559523Y-95260771D02*
X102511904Y-95070295D01*
X102511904Y-95070295D02*
X102464285Y-94975057D01*
X102464285Y-94975057D02*
X102416666Y-94927438D01*
X102416666Y-94927438D02*
X102321428Y-94879819D01*
X72991666Y-90134580D02*
X73039285Y-90182200D01*
X73039285Y-90182200D02*
X73182142Y-90229819D01*
X73182142Y-90229819D02*
X73277380Y-90229819D01*
X73277380Y-90229819D02*
X73420237Y-90182200D01*
X73420237Y-90182200D02*
X73515475Y-90086961D01*
X73515475Y-90086961D02*
X73563094Y-89991723D01*
X73563094Y-89991723D02*
X73610713Y-89801247D01*
X73610713Y-89801247D02*
X73610713Y-89658390D01*
X73610713Y-89658390D02*
X73563094Y-89467914D01*
X73563094Y-89467914D02*
X73515475Y-89372676D01*
X73515475Y-89372676D02*
X73420237Y-89277438D01*
X73420237Y-89277438D02*
X73277380Y-89229819D01*
X73277380Y-89229819D02*
X73182142Y-89229819D01*
X73182142Y-89229819D02*
X73039285Y-89277438D01*
X73039285Y-89277438D02*
X72991666Y-89325057D01*
X72658332Y-89229819D02*
X72039285Y-89229819D01*
X72039285Y-89229819D02*
X72372618Y-89610771D01*
X72372618Y-89610771D02*
X72229761Y-89610771D01*
X72229761Y-89610771D02*
X72134523Y-89658390D01*
X72134523Y-89658390D02*
X72086904Y-89706009D01*
X72086904Y-89706009D02*
X72039285Y-89801247D01*
X72039285Y-89801247D02*
X72039285Y-90039342D01*
X72039285Y-90039342D02*
X72086904Y-90134580D01*
X72086904Y-90134580D02*
X72134523Y-90182200D01*
X72134523Y-90182200D02*
X72229761Y-90229819D01*
X72229761Y-90229819D02*
X72515475Y-90229819D01*
X72515475Y-90229819D02*
X72610713Y-90182200D01*
X72610713Y-90182200D02*
X72658332Y-90134580D01*
D11*
X78211666Y-67703365D02*
X78272142Y-67763842D01*
X78272142Y-67763842D02*
X78453571Y-67824318D01*
X78453571Y-67824318D02*
X78574523Y-67824318D01*
X78574523Y-67824318D02*
X78755952Y-67763842D01*
X78755952Y-67763842D02*
X78876904Y-67642889D01*
X78876904Y-67642889D02*
X78937381Y-67521937D01*
X78937381Y-67521937D02*
X78997857Y-67280032D01*
X78997857Y-67280032D02*
X78997857Y-67098603D01*
X78997857Y-67098603D02*
X78937381Y-66856699D01*
X78937381Y-66856699D02*
X78876904Y-66735746D01*
X78876904Y-66735746D02*
X78755952Y-66614794D01*
X78755952Y-66614794D02*
X78574523Y-66554318D01*
X78574523Y-66554318D02*
X78453571Y-66554318D01*
X78453571Y-66554318D02*
X78272142Y-66614794D01*
X78272142Y-66614794D02*
X78211666Y-66675270D01*
X77062619Y-66554318D02*
X77667381Y-66554318D01*
X77667381Y-66554318D02*
X77727857Y-67159080D01*
X77727857Y-67159080D02*
X77667381Y-67098603D01*
X77667381Y-67098603D02*
X77546428Y-67038127D01*
X77546428Y-67038127D02*
X77244047Y-67038127D01*
X77244047Y-67038127D02*
X77123095Y-67098603D01*
X77123095Y-67098603D02*
X77062619Y-67159080D01*
X77062619Y-67159080D02*
X77002142Y-67280032D01*
X77002142Y-67280032D02*
X77002142Y-67582413D01*
X77002142Y-67582413D02*
X77062619Y-67703365D01*
X77062619Y-67703365D02*
X77123095Y-67763842D01*
X77123095Y-67763842D02*
X77244047Y-67824318D01*
X77244047Y-67824318D02*
X77546428Y-67824318D01*
X77546428Y-67824318D02*
X77667381Y-67763842D01*
X77667381Y-67763842D02*
X77727857Y-67703365D01*
X98211666Y-77574318D02*
X98816428Y-77574318D01*
X98816428Y-77574318D02*
X98816428Y-76304318D01*
X97848809Y-76425270D02*
X97788333Y-76364794D01*
X97788333Y-76364794D02*
X97667380Y-76304318D01*
X97667380Y-76304318D02*
X97364999Y-76304318D01*
X97364999Y-76304318D02*
X97244047Y-76364794D01*
X97244047Y-76364794D02*
X97183571Y-76425270D01*
X97183571Y-76425270D02*
X97123094Y-76546222D01*
X97123094Y-76546222D02*
X97123094Y-76667175D01*
X97123094Y-76667175D02*
X97183571Y-76848603D01*
X97183571Y-76848603D02*
X97909285Y-77574318D01*
X97909285Y-77574318D02*
X97123094Y-77574318D01*
D10*
X72991666Y-97009580D02*
X73039285Y-97057200D01*
X73039285Y-97057200D02*
X73182142Y-97104819D01*
X73182142Y-97104819D02*
X73277380Y-97104819D01*
X73277380Y-97104819D02*
X73420237Y-97057200D01*
X73420237Y-97057200D02*
X73515475Y-96961961D01*
X73515475Y-96961961D02*
X73563094Y-96866723D01*
X73563094Y-96866723D02*
X73610713Y-96676247D01*
X73610713Y-96676247D02*
X73610713Y-96533390D01*
X73610713Y-96533390D02*
X73563094Y-96342914D01*
X73563094Y-96342914D02*
X73515475Y-96247676D01*
X73515475Y-96247676D02*
X73420237Y-96152438D01*
X73420237Y-96152438D02*
X73277380Y-96104819D01*
X73277380Y-96104819D02*
X73182142Y-96104819D01*
X73182142Y-96104819D02*
X73039285Y-96152438D01*
X73039285Y-96152438D02*
X72991666Y-96200057D01*
X72134523Y-96438152D02*
X72134523Y-97104819D01*
X72372618Y-96057200D02*
X72610713Y-96771485D01*
X72610713Y-96771485D02*
X71991666Y-96771485D01*
X88066666Y-73759580D02*
X88114285Y-73807200D01*
X88114285Y-73807200D02*
X88257142Y-73854819D01*
X88257142Y-73854819D02*
X88352380Y-73854819D01*
X88352380Y-73854819D02*
X88495237Y-73807200D01*
X88495237Y-73807200D02*
X88590475Y-73711961D01*
X88590475Y-73711961D02*
X88638094Y-73616723D01*
X88638094Y-73616723D02*
X88685713Y-73426247D01*
X88685713Y-73426247D02*
X88685713Y-73283390D01*
X88685713Y-73283390D02*
X88638094Y-73092914D01*
X88638094Y-73092914D02*
X88590475Y-72997676D01*
X88590475Y-72997676D02*
X88495237Y-72902438D01*
X88495237Y-72902438D02*
X88352380Y-72854819D01*
X88352380Y-72854819D02*
X88257142Y-72854819D01*
X88257142Y-72854819D02*
X88114285Y-72902438D01*
X88114285Y-72902438D02*
X88066666Y-72950057D01*
X87209523Y-72854819D02*
X87399999Y-72854819D01*
X87399999Y-72854819D02*
X87495237Y-72902438D01*
X87495237Y-72902438D02*
X87542856Y-72950057D01*
X87542856Y-72950057D02*
X87638094Y-73092914D01*
X87638094Y-73092914D02*
X87685713Y-73283390D01*
X87685713Y-73283390D02*
X87685713Y-73664342D01*
X87685713Y-73664342D02*
X87638094Y-73759580D01*
X87638094Y-73759580D02*
X87590475Y-73807200D01*
X87590475Y-73807200D02*
X87495237Y-73854819D01*
X87495237Y-73854819D02*
X87304761Y-73854819D01*
X87304761Y-73854819D02*
X87209523Y-73807200D01*
X87209523Y-73807200D02*
X87161904Y-73759580D01*
X87161904Y-73759580D02*
X87114285Y-73664342D01*
X87114285Y-73664342D02*
X87114285Y-73426247D01*
X87114285Y-73426247D02*
X87161904Y-73331009D01*
X87161904Y-73331009D02*
X87209523Y-73283390D01*
X87209523Y-73283390D02*
X87304761Y-73235771D01*
X87304761Y-73235771D02*
X87495237Y-73235771D01*
X87495237Y-73235771D02*
X87590475Y-73283390D01*
X87590475Y-73283390D02*
X87638094Y-73331009D01*
X87638094Y-73331009D02*
X87685713Y-73426247D01*
X87466666Y-81084580D02*
X87514285Y-81132200D01*
X87514285Y-81132200D02*
X87657142Y-81179819D01*
X87657142Y-81179819D02*
X87752380Y-81179819D01*
X87752380Y-81179819D02*
X87895237Y-81132200D01*
X87895237Y-81132200D02*
X87990475Y-81036961D01*
X87990475Y-81036961D02*
X88038094Y-80941723D01*
X88038094Y-80941723D02*
X88085713Y-80751247D01*
X88085713Y-80751247D02*
X88085713Y-80608390D01*
X88085713Y-80608390D02*
X88038094Y-80417914D01*
X88038094Y-80417914D02*
X87990475Y-80322676D01*
X87990475Y-80322676D02*
X87895237Y-80227438D01*
X87895237Y-80227438D02*
X87752380Y-80179819D01*
X87752380Y-80179819D02*
X87657142Y-80179819D01*
X87657142Y-80179819D02*
X87514285Y-80227438D01*
X87514285Y-80227438D02*
X87466666Y-80275057D01*
X87133332Y-80179819D02*
X86466666Y-80179819D01*
X86466666Y-80179819D02*
X86895237Y-81179819D01*
D11*
X98211666Y-89574318D02*
X98816428Y-89574318D01*
X98816428Y-89574318D02*
X98816428Y-88304318D01*
X97123094Y-89574318D02*
X97848809Y-89574318D01*
X97485952Y-89574318D02*
X97485952Y-88304318D01*
X97485952Y-88304318D02*
X97606904Y-88485746D01*
X97606904Y-88485746D02*
X97727856Y-88606699D01*
X97727856Y-88606699D02*
X97848809Y-88667175D01*
D10*
X103967857Y-104754580D02*
X104015476Y-104802200D01*
X104015476Y-104802200D02*
X104158333Y-104849819D01*
X104158333Y-104849819D02*
X104253571Y-104849819D01*
X104253571Y-104849819D02*
X104396428Y-104802200D01*
X104396428Y-104802200D02*
X104491666Y-104706961D01*
X104491666Y-104706961D02*
X104539285Y-104611723D01*
X104539285Y-104611723D02*
X104586904Y-104421247D01*
X104586904Y-104421247D02*
X104586904Y-104278390D01*
X104586904Y-104278390D02*
X104539285Y-104087914D01*
X104539285Y-104087914D02*
X104491666Y-103992676D01*
X104491666Y-103992676D02*
X104396428Y-103897438D01*
X104396428Y-103897438D02*
X104253571Y-103849819D01*
X104253571Y-103849819D02*
X104158333Y-103849819D01*
X104158333Y-103849819D02*
X104015476Y-103897438D01*
X104015476Y-103897438D02*
X103967857Y-103945057D01*
X103015476Y-104849819D02*
X103586904Y-104849819D01*
X103301190Y-104849819D02*
X103301190Y-103849819D01*
X103301190Y-103849819D02*
X103396428Y-103992676D01*
X103396428Y-103992676D02*
X103491666Y-104087914D01*
X103491666Y-104087914D02*
X103586904Y-104135533D01*
X102158333Y-104183152D02*
X102158333Y-104849819D01*
X102396428Y-103802200D02*
X102634523Y-104516485D01*
X102634523Y-104516485D02*
X102015476Y-104516485D01*
D11*
X116629318Y-100501667D02*
X117536461Y-100501667D01*
X117536461Y-100501667D02*
X117717889Y-100441190D01*
X117717889Y-100441190D02*
X117838842Y-100320238D01*
X117838842Y-100320238D02*
X117899318Y-100138809D01*
X117899318Y-100138809D02*
X117899318Y-100017857D01*
X116629318Y-100985476D02*
X116629318Y-101771667D01*
X116629318Y-101771667D02*
X117113127Y-101348333D01*
X117113127Y-101348333D02*
X117113127Y-101529762D01*
X117113127Y-101529762D02*
X117173603Y-101650714D01*
X117173603Y-101650714D02*
X117234080Y-101711190D01*
X117234080Y-101711190D02*
X117355032Y-101771667D01*
X117355032Y-101771667D02*
X117657413Y-101771667D01*
X117657413Y-101771667D02*
X117778365Y-101711190D01*
X117778365Y-101711190D02*
X117838842Y-101650714D01*
X117838842Y-101650714D02*
X117899318Y-101529762D01*
X117899318Y-101529762D02*
X117899318Y-101166905D01*
X117899318Y-101166905D02*
X117838842Y-101045952D01*
X117838842Y-101045952D02*
X117778365Y-100985476D01*
D10*
X87966666Y-77609580D02*
X88014285Y-77657200D01*
X88014285Y-77657200D02*
X88157142Y-77704819D01*
X88157142Y-77704819D02*
X88252380Y-77704819D01*
X88252380Y-77704819D02*
X88395237Y-77657200D01*
X88395237Y-77657200D02*
X88490475Y-77561961D01*
X88490475Y-77561961D02*
X88538094Y-77466723D01*
X88538094Y-77466723D02*
X88585713Y-77276247D01*
X88585713Y-77276247D02*
X88585713Y-77133390D01*
X88585713Y-77133390D02*
X88538094Y-76942914D01*
X88538094Y-76942914D02*
X88490475Y-76847676D01*
X88490475Y-76847676D02*
X88395237Y-76752438D01*
X88395237Y-76752438D02*
X88252380Y-76704819D01*
X88252380Y-76704819D02*
X88157142Y-76704819D01*
X88157142Y-76704819D02*
X88014285Y-76752438D01*
X88014285Y-76752438D02*
X87966666Y-76800057D01*
X87395237Y-77133390D02*
X87490475Y-77085771D01*
X87490475Y-77085771D02*
X87538094Y-77038152D01*
X87538094Y-77038152D02*
X87585713Y-76942914D01*
X87585713Y-76942914D02*
X87585713Y-76895295D01*
X87585713Y-76895295D02*
X87538094Y-76800057D01*
X87538094Y-76800057D02*
X87490475Y-76752438D01*
X87490475Y-76752438D02*
X87395237Y-76704819D01*
X87395237Y-76704819D02*
X87204761Y-76704819D01*
X87204761Y-76704819D02*
X87109523Y-76752438D01*
X87109523Y-76752438D02*
X87061904Y-76800057D01*
X87061904Y-76800057D02*
X87014285Y-76895295D01*
X87014285Y-76895295D02*
X87014285Y-76942914D01*
X87014285Y-76942914D02*
X87061904Y-77038152D01*
X87061904Y-77038152D02*
X87109523Y-77085771D01*
X87109523Y-77085771D02*
X87204761Y-77133390D01*
X87204761Y-77133390D02*
X87395237Y-77133390D01*
X87395237Y-77133390D02*
X87490475Y-77181009D01*
X87490475Y-77181009D02*
X87538094Y-77228628D01*
X87538094Y-77228628D02*
X87585713Y-77323866D01*
X87585713Y-77323866D02*
X87585713Y-77514342D01*
X87585713Y-77514342D02*
X87538094Y-77609580D01*
X87538094Y-77609580D02*
X87490475Y-77657200D01*
X87490475Y-77657200D02*
X87395237Y-77704819D01*
X87395237Y-77704819D02*
X87204761Y-77704819D01*
X87204761Y-77704819D02*
X87109523Y-77657200D01*
X87109523Y-77657200D02*
X87061904Y-77609580D01*
X87061904Y-77609580D02*
X87014285Y-77514342D01*
X87014285Y-77514342D02*
X87014285Y-77323866D01*
X87014285Y-77323866D02*
X87061904Y-77228628D01*
X87061904Y-77228628D02*
X87109523Y-77181009D01*
X87109523Y-77181009D02*
X87204761Y-77133390D01*
X73505357Y-75929580D02*
X73552976Y-75977200D01*
X73552976Y-75977200D02*
X73695833Y-76024819D01*
X73695833Y-76024819D02*
X73791071Y-76024819D01*
X73791071Y-76024819D02*
X73933928Y-75977200D01*
X73933928Y-75977200D02*
X74029166Y-75881961D01*
X74029166Y-75881961D02*
X74076785Y-75786723D01*
X74076785Y-75786723D02*
X74124404Y-75596247D01*
X74124404Y-75596247D02*
X74124404Y-75453390D01*
X74124404Y-75453390D02*
X74076785Y-75262914D01*
X74076785Y-75262914D02*
X74029166Y-75167676D01*
X74029166Y-75167676D02*
X73933928Y-75072438D01*
X73933928Y-75072438D02*
X73791071Y-75024819D01*
X73791071Y-75024819D02*
X73695833Y-75024819D01*
X73695833Y-75024819D02*
X73552976Y-75072438D01*
X73552976Y-75072438D02*
X73505357Y-75120057D01*
X72552976Y-76024819D02*
X73124404Y-76024819D01*
X72838690Y-76024819D02*
X72838690Y-75024819D01*
X72838690Y-75024819D02*
X72933928Y-75167676D01*
X72933928Y-75167676D02*
X73029166Y-75262914D01*
X73029166Y-75262914D02*
X73124404Y-75310533D01*
X71600595Y-76024819D02*
X72172023Y-76024819D01*
X71886309Y-76024819D02*
X71886309Y-75024819D01*
X71886309Y-75024819D02*
X71981547Y-75167676D01*
X71981547Y-75167676D02*
X72076785Y-75262914D01*
X72076785Y-75262914D02*
X72172023Y-75310533D01*
D11*
X114441428Y-71728365D02*
X114501904Y-71788842D01*
X114501904Y-71788842D02*
X114683333Y-71849318D01*
X114683333Y-71849318D02*
X114804285Y-71849318D01*
X114804285Y-71849318D02*
X114985714Y-71788842D01*
X114985714Y-71788842D02*
X115106666Y-71667889D01*
X115106666Y-71667889D02*
X115167143Y-71546937D01*
X115167143Y-71546937D02*
X115227619Y-71305032D01*
X115227619Y-71305032D02*
X115227619Y-71123603D01*
X115227619Y-71123603D02*
X115167143Y-70881699D01*
X115167143Y-70881699D02*
X115106666Y-70760746D01*
X115106666Y-70760746D02*
X114985714Y-70639794D01*
X114985714Y-70639794D02*
X114804285Y-70579318D01*
X114804285Y-70579318D02*
X114683333Y-70579318D01*
X114683333Y-70579318D02*
X114501904Y-70639794D01*
X114501904Y-70639794D02*
X114441428Y-70700270D01*
X113231904Y-71849318D02*
X113957619Y-71849318D01*
X113594762Y-71849318D02*
X113594762Y-70579318D01*
X113594762Y-70579318D02*
X113715714Y-70760746D01*
X113715714Y-70760746D02*
X113836666Y-70881699D01*
X113836666Y-70881699D02*
X113957619Y-70942175D01*
X112143333Y-70579318D02*
X112385238Y-70579318D01*
X112385238Y-70579318D02*
X112506190Y-70639794D01*
X112506190Y-70639794D02*
X112566666Y-70700270D01*
X112566666Y-70700270D02*
X112687619Y-70881699D01*
X112687619Y-70881699D02*
X112748095Y-71123603D01*
X112748095Y-71123603D02*
X112748095Y-71607413D01*
X112748095Y-71607413D02*
X112687619Y-71728365D01*
X112687619Y-71728365D02*
X112627142Y-71788842D01*
X112627142Y-71788842D02*
X112506190Y-71849318D01*
X112506190Y-71849318D02*
X112264285Y-71849318D01*
X112264285Y-71849318D02*
X112143333Y-71788842D01*
X112143333Y-71788842D02*
X112082857Y-71728365D01*
X112082857Y-71728365D02*
X112022380Y-71607413D01*
X112022380Y-71607413D02*
X112022380Y-71305032D01*
X112022380Y-71305032D02*
X112082857Y-71184080D01*
X112082857Y-71184080D02*
X112143333Y-71123603D01*
X112143333Y-71123603D02*
X112264285Y-71063127D01*
X112264285Y-71063127D02*
X112506190Y-71063127D01*
X112506190Y-71063127D02*
X112627142Y-71123603D01*
X112627142Y-71123603D02*
X112687619Y-71184080D01*
X112687619Y-71184080D02*
X112748095Y-71305032D01*
D10*
X103917857Y-102614580D02*
X103965476Y-102662200D01*
X103965476Y-102662200D02*
X104108333Y-102709819D01*
X104108333Y-102709819D02*
X104203571Y-102709819D01*
X104203571Y-102709819D02*
X104346428Y-102662200D01*
X104346428Y-102662200D02*
X104441666Y-102566961D01*
X104441666Y-102566961D02*
X104489285Y-102471723D01*
X104489285Y-102471723D02*
X104536904Y-102281247D01*
X104536904Y-102281247D02*
X104536904Y-102138390D01*
X104536904Y-102138390D02*
X104489285Y-101947914D01*
X104489285Y-101947914D02*
X104441666Y-101852676D01*
X104441666Y-101852676D02*
X104346428Y-101757438D01*
X104346428Y-101757438D02*
X104203571Y-101709819D01*
X104203571Y-101709819D02*
X104108333Y-101709819D01*
X104108333Y-101709819D02*
X103965476Y-101757438D01*
X103965476Y-101757438D02*
X103917857Y-101805057D01*
X102965476Y-102709819D02*
X103536904Y-102709819D01*
X103251190Y-102709819D02*
X103251190Y-101709819D01*
X103251190Y-101709819D02*
X103346428Y-101852676D01*
X103346428Y-101852676D02*
X103441666Y-101947914D01*
X103441666Y-101947914D02*
X103536904Y-101995533D01*
X102632142Y-101709819D02*
X102013095Y-101709819D01*
X102013095Y-101709819D02*
X102346428Y-102090771D01*
X102346428Y-102090771D02*
X102203571Y-102090771D01*
X102203571Y-102090771D02*
X102108333Y-102138390D01*
X102108333Y-102138390D02*
X102060714Y-102186009D01*
X102060714Y-102186009D02*
X102013095Y-102281247D01*
X102013095Y-102281247D02*
X102013095Y-102519342D01*
X102013095Y-102519342D02*
X102060714Y-102614580D01*
X102060714Y-102614580D02*
X102108333Y-102662200D01*
X102108333Y-102662200D02*
X102203571Y-102709819D01*
X102203571Y-102709819D02*
X102489285Y-102709819D01*
X102489285Y-102709819D02*
X102584523Y-102662200D01*
X102584523Y-102662200D02*
X102632142Y-102614580D01*
X59504376Y-108598693D02*
X59504376Y-109314109D01*
X59504376Y-109314109D02*
X59552070Y-109457193D01*
X59552070Y-109457193D02*
X59647459Y-109552582D01*
X59647459Y-109552582D02*
X59790542Y-109600276D01*
X59790542Y-109600276D02*
X59885931Y-109600276D01*
X59075126Y-108694082D02*
X59027431Y-108646387D01*
X59027431Y-108646387D02*
X58932043Y-108598693D01*
X58932043Y-108598693D02*
X58693570Y-108598693D01*
X58693570Y-108598693D02*
X58598182Y-108646387D01*
X58598182Y-108646387D02*
X58550487Y-108694082D01*
X58550487Y-108694082D02*
X58502793Y-108789471D01*
X58502793Y-108789471D02*
X58502793Y-108884860D01*
X58502793Y-108884860D02*
X58550487Y-109027943D01*
X58550487Y-109027943D02*
X59122820Y-109600276D01*
X59122820Y-109600276D02*
X58502793Y-109600276D01*
D12*
%TO.C,U1*%
X81986261Y-83076700D02*
X77955739Y-83076700D01*
X77955739Y-74923300D02*
X81986261Y-74923300D01*
D13*
G36*
X84330999Y-81465540D02*
G01*
X84076999Y-81465540D01*
X84076999Y-81084540D01*
X84330999Y-81084540D01*
X84330999Y-81465540D01*
G37*
G36*
X75865001Y-78215483D02*
G01*
X75611001Y-78215483D01*
X75611001Y-77834483D01*
X75865001Y-77834483D01*
X75865001Y-78215483D01*
G37*
D14*
%TO.C,C17*%
X90325000Y-90250000D02*
G75*
G02*
X90225000Y-90250000I-50000J0D01*
G01*
X90325000Y-90250000D02*
G75*
G02*
X90225000Y-90250000I-50000J0D01*
G01*
X90225000Y-90250000D02*
G75*
G02*
X90325000Y-90250000I50000J0D01*
G01*
X90325000Y-90250000D02*
X90325000Y-90250000D01*
X90325000Y-90250000D02*
X90325000Y-90250000D01*
X90225000Y-90250000D02*
X90225000Y-90250000D01*
X88275000Y-92750000D02*
X85665000Y-95400000D01*
X88275000Y-91750000D02*
X88275000Y-92750000D01*
X88275000Y-87710000D02*
X88275000Y-88750000D01*
X85665000Y-95400000D02*
X77975000Y-95400000D01*
X85625000Y-85100000D02*
X88275000Y-87710000D01*
X77975000Y-95400000D02*
X77975000Y-91750000D01*
X77975000Y-88750000D02*
X77975000Y-85100000D01*
X77975000Y-85100000D02*
X85625000Y-85100000D01*
%TO.C,J4*%
X106825000Y-79375000D02*
X106825000Y-91925000D01*
X106825000Y-91925000D02*
X127625000Y-91925000D01*
D15*
X123475000Y-78825000D02*
X123475000Y-78825000D01*
X123475000Y-78925000D02*
X123475000Y-78925000D01*
D14*
X127625000Y-79375000D02*
X106825000Y-79375000D01*
X127625000Y-91925000D02*
X127625000Y-79375000D01*
D15*
X123475000Y-78825000D02*
G75*
G02*
X123475000Y-78925000I0J-50000D01*
G01*
X123475000Y-78925000D02*
G75*
G02*
X123475000Y-78825000I0J50000D01*
G01*
D16*
%TO.C,C12*%
X73008767Y-80490000D02*
X72716233Y-80490000D01*
X73008767Y-81510000D02*
X72716233Y-81510000D01*
%TO.C,C9*%
X103311252Y-68565000D02*
X101888748Y-68565000D01*
X103311252Y-70385000D02*
X101888748Y-70385000D01*
D14*
%TO.C,C15*%
X85625000Y-102625000D02*
X85625000Y-102625000D01*
X85625000Y-102625000D02*
X85625000Y-102625000D01*
X85725000Y-102625000D02*
X85725000Y-102625000D01*
X87675000Y-100125000D02*
X90285000Y-97475000D01*
X87675000Y-101125000D02*
X87675000Y-100125000D01*
X87675000Y-105165000D02*
X87675000Y-104125000D01*
X90285000Y-97475000D02*
X97975000Y-97475000D01*
X90325000Y-107775000D02*
X87675000Y-105165000D01*
X97975000Y-97475000D02*
X97975000Y-101125000D01*
X97975000Y-104125000D02*
X97975000Y-107775000D01*
X97975000Y-107775000D02*
X90325000Y-107775000D01*
X85625000Y-102625000D02*
G75*
G02*
X85725000Y-102625000I50000J0D01*
G01*
X85625000Y-102625000D02*
G75*
G02*
X85725000Y-102625000I50000J0D01*
G01*
X85725000Y-102625000D02*
G75*
G02*
X85625000Y-102625000I-50000J0D01*
G01*
D16*
%TO.C,C10*%
X103961252Y-96365000D02*
X102538748Y-96365000D01*
X103961252Y-98185000D02*
X102538748Y-98185000D01*
%TO.C,C3*%
X73536252Y-90715000D02*
X72113748Y-90715000D01*
X73536252Y-92535000D02*
X72113748Y-92535000D01*
D14*
%TO.C,C5*%
X72850000Y-62100000D02*
X80500000Y-62100000D01*
X72850000Y-65750000D02*
X72850000Y-62100000D01*
X72850000Y-72400000D02*
X72850000Y-68750000D01*
X80500000Y-62100000D02*
X83150000Y-64710000D01*
X80540000Y-72400000D02*
X72850000Y-72400000D01*
X83150000Y-64710000D02*
X83150000Y-65750000D01*
X83150000Y-68750000D02*
X83150000Y-69750000D01*
X83150000Y-69750000D02*
X80540000Y-72400000D01*
X85100000Y-67250000D02*
X85100000Y-67250000D01*
X85200000Y-67250000D02*
X85200000Y-67250000D01*
X85200000Y-67250000D02*
X85200000Y-67250000D01*
X85100000Y-67250000D02*
G75*
G02*
X85200000Y-67250000I50000J0D01*
G01*
X85200000Y-67250000D02*
G75*
G02*
X85100000Y-67250000I-50000J0D01*
G01*
X85200000Y-67250000D02*
G75*
G02*
X85100000Y-67250000I-50000J0D01*
G01*
%TO.C,L2*%
X92950000Y-72000000D02*
X92950000Y-74200000D01*
X92950000Y-79800000D02*
X92950000Y-82000000D01*
X92950000Y-82000000D02*
X103050000Y-82000000D01*
X103050000Y-72000000D02*
X92950000Y-72000000D01*
X103050000Y-74200000D02*
X103050000Y-72000000D01*
X103050000Y-82000000D02*
X103050000Y-79800000D01*
D15*
X104700000Y-77000000D02*
X104700000Y-77000000D01*
X104800000Y-77000000D02*
X104800000Y-77000000D01*
X104700000Y-77000000D02*
G75*
G02*
X104800000Y-77000000I50000J0D01*
G01*
X104800000Y-77000000D02*
G75*
G02*
X104700000Y-77000000I-50000J0D01*
G01*
D16*
%TO.C,C4*%
X73536252Y-93715000D02*
X72113748Y-93715000D01*
X73536252Y-95535000D02*
X72113748Y-95535000D01*
%TO.C,C6*%
X87188748Y-74390000D02*
X88611252Y-74390000D01*
X87188748Y-76210000D02*
X88611252Y-76210000D01*
%TO.C,C7*%
X88011252Y-81665000D02*
X86588748Y-81665000D01*
X88011252Y-83485000D02*
X86588748Y-83485000D01*
D14*
%TO.C,L1*%
X92950000Y-84000000D02*
X92950000Y-86200000D01*
X92950000Y-91800000D02*
X92950000Y-94000000D01*
X92950000Y-94000000D02*
X103050000Y-94000000D01*
X103050000Y-84000000D02*
X92950000Y-84000000D01*
X103050000Y-86200000D02*
X103050000Y-84000000D01*
X103050000Y-94000000D02*
X103050000Y-91800000D01*
D15*
X104700000Y-89000000D02*
X104700000Y-89000000D01*
X104800000Y-89000000D02*
X104800000Y-89000000D01*
X104700000Y-89000000D02*
G75*
G02*
X104800000Y-89000000I50000J0D01*
G01*
X104800000Y-89000000D02*
G75*
G02*
X104700000Y-89000000I-50000J0D01*
G01*
D16*
%TO.C,C14*%
X103586252Y-105340000D02*
X103063748Y-105340000D01*
X103586252Y-106810000D02*
X103063748Y-106810000D01*
D14*
%TO.C,J3*%
X106925000Y-94650000D02*
X106925000Y-107200000D01*
X106925000Y-107200000D02*
X127725000Y-107200000D01*
D15*
X123575000Y-94100000D02*
X123575000Y-94100000D01*
X123575000Y-94200000D02*
X123575000Y-94200000D01*
D14*
X127725000Y-94650000D02*
X106925000Y-94650000D01*
X127725000Y-107200000D02*
X127725000Y-94650000D01*
D15*
X123575000Y-94100000D02*
G75*
G02*
X123575000Y-94200000I0J-50000D01*
G01*
X123575000Y-94200000D02*
G75*
G02*
X123575000Y-94100000I0J50000D01*
G01*
D16*
%TO.C,C8*%
X88511252Y-78190000D02*
X87088748Y-78190000D01*
X88511252Y-80010000D02*
X87088748Y-80010000D01*
%TO.C,C11*%
X73008767Y-76490000D02*
X72716233Y-76490000D01*
X73008767Y-77510000D02*
X72716233Y-77510000D01*
D14*
%TO.C,C16*%
X106425000Y-71275000D02*
X106425000Y-71275000D01*
X106425000Y-71275000D02*
X106425000Y-71275000D01*
X106525000Y-71275000D02*
X106525000Y-71275000D01*
X108475000Y-68775000D02*
X111085000Y-66125000D01*
X108475000Y-69775000D02*
X108475000Y-68775000D01*
X108475000Y-73815000D02*
X108475000Y-72775000D01*
X111085000Y-66125000D02*
X118775000Y-66125000D01*
X111125000Y-76425000D02*
X108475000Y-73815000D01*
X118775000Y-66125000D02*
X118775000Y-69775000D01*
X118775000Y-72775000D02*
X118775000Y-76425000D01*
X118775000Y-76425000D02*
X111125000Y-76425000D01*
X106425000Y-71275000D02*
G75*
G02*
X106525000Y-71275000I50000J0D01*
G01*
X106425000Y-71275000D02*
G75*
G02*
X106525000Y-71275000I50000J0D01*
G01*
X106525000Y-71275000D02*
G75*
G02*
X106425000Y-71275000I-50000J0D01*
G01*
D16*
%TO.C,C13*%
X103013748Y-101310000D02*
X103536252Y-101310000D01*
X103013748Y-99840000D02*
X103536252Y-99840000D01*
D15*
%TO.C,J2*%
X55850000Y-97550000D02*
X55800000Y-97550000D01*
X55850000Y-97550000D02*
X55850000Y-108200000D01*
X55850000Y-108200000D02*
X69550000Y-108250000D01*
X69550000Y-97550000D02*
X55850000Y-97550000D01*
X69550000Y-108250000D02*
X69550000Y-97550000D01*
%TD*%
M02*
