%TF.GenerationSoftware,KiCad,Pcbnew,9.0.2*%
%TF.CreationDate,2025-09-10T19:30:47-05:00*%
%TF.ProjectId,EE101_Board,45453130-315f-4426-9f61-72642e6b6963,rev?*%
%TF.SameCoordinates,Original*%
%TF.FileFunction,Legend,Top*%
%TF.FilePolarity,Positive*%
%FSLAX46Y46*%
G04 Gerber Fmt 4.6, Leading zero omitted, Abs format (unit mm)*
G04 Created by KiCad (PCBNEW 9.0.2) date 2025-09-10 19:30:47*
%MOMM*%
%LPD*%
G01*
G04 APERTURE LIST*
%ADD10C,0.100000*%
%ADD11C,0.150000*%
%ADD12C,0.158750*%
%ADD13C,0.125345*%
%ADD14C,0.254000*%
%ADD15C,0.120000*%
%ADD16C,0.200000*%
%ADD17C,0.127000*%
G04 APERTURE END LIST*
D10*
X95153884Y-100058833D02*
X95487217Y-100058833D01*
X95630074Y-100582643D02*
X95153884Y-100582643D01*
X95153884Y-100582643D02*
X95153884Y-99582643D01*
X95153884Y-99582643D02*
X95630074Y-99582643D01*
X96058646Y-100058833D02*
X96391979Y-100058833D01*
X96534836Y-100582643D02*
X96058646Y-100582643D01*
X96058646Y-100582643D02*
X96058646Y-99582643D01*
X96058646Y-99582643D02*
X96534836Y-99582643D01*
X98249122Y-100582643D02*
X97677694Y-100582643D01*
X97963408Y-100582643D02*
X97963408Y-99582643D01*
X97963408Y-99582643D02*
X97868170Y-99725500D01*
X97868170Y-99725500D02*
X97772932Y-99820738D01*
X97772932Y-99820738D02*
X97677694Y-99868357D01*
X98868170Y-99582643D02*
X98963408Y-99582643D01*
X98963408Y-99582643D02*
X99058646Y-99630262D01*
X99058646Y-99630262D02*
X99106265Y-99677881D01*
X99106265Y-99677881D02*
X99153884Y-99773119D01*
X99153884Y-99773119D02*
X99201503Y-99963595D01*
X99201503Y-99963595D02*
X99201503Y-100201690D01*
X99201503Y-100201690D02*
X99153884Y-100392166D01*
X99153884Y-100392166D02*
X99106265Y-100487404D01*
X99106265Y-100487404D02*
X99058646Y-100535024D01*
X99058646Y-100535024D02*
X98963408Y-100582643D01*
X98963408Y-100582643D02*
X98868170Y-100582643D01*
X98868170Y-100582643D02*
X98772932Y-100535024D01*
X98772932Y-100535024D02*
X98725313Y-100487404D01*
X98725313Y-100487404D02*
X98677694Y-100392166D01*
X98677694Y-100392166D02*
X98630075Y-100201690D01*
X98630075Y-100201690D02*
X98630075Y-99963595D01*
X98630075Y-99963595D02*
X98677694Y-99773119D01*
X98677694Y-99773119D02*
X98725313Y-99677881D01*
X98725313Y-99677881D02*
X98772932Y-99630262D01*
X98772932Y-99630262D02*
X98868170Y-99582643D01*
X100153884Y-100582643D02*
X99582456Y-100582643D01*
X99868170Y-100582643D02*
X99868170Y-99582643D01*
X99868170Y-99582643D02*
X99772932Y-99725500D01*
X99772932Y-99725500D02*
X99677694Y-99820738D01*
X99677694Y-99820738D02*
X99582456Y-99868357D01*
X95487217Y-101668777D02*
X95630074Y-101716396D01*
X95630074Y-101716396D02*
X95677693Y-101764015D01*
X95677693Y-101764015D02*
X95725312Y-101859253D01*
X95725312Y-101859253D02*
X95725312Y-102002110D01*
X95725312Y-102002110D02*
X95677693Y-102097348D01*
X95677693Y-102097348D02*
X95630074Y-102144968D01*
X95630074Y-102144968D02*
X95534836Y-102192587D01*
X95534836Y-102192587D02*
X95153884Y-102192587D01*
X95153884Y-102192587D02*
X95153884Y-101192587D01*
X95153884Y-101192587D02*
X95487217Y-101192587D01*
X95487217Y-101192587D02*
X95582455Y-101240206D01*
X95582455Y-101240206D02*
X95630074Y-101287825D01*
X95630074Y-101287825D02*
X95677693Y-101383063D01*
X95677693Y-101383063D02*
X95677693Y-101478301D01*
X95677693Y-101478301D02*
X95630074Y-101573539D01*
X95630074Y-101573539D02*
X95582455Y-101621158D01*
X95582455Y-101621158D02*
X95487217Y-101668777D01*
X95487217Y-101668777D02*
X95153884Y-101668777D01*
X96296741Y-102192587D02*
X96201503Y-102144968D01*
X96201503Y-102144968D02*
X96153884Y-102097348D01*
X96153884Y-102097348D02*
X96106265Y-102002110D01*
X96106265Y-102002110D02*
X96106265Y-101716396D01*
X96106265Y-101716396D02*
X96153884Y-101621158D01*
X96153884Y-101621158D02*
X96201503Y-101573539D01*
X96201503Y-101573539D02*
X96296741Y-101525920D01*
X96296741Y-101525920D02*
X96439598Y-101525920D01*
X96439598Y-101525920D02*
X96534836Y-101573539D01*
X96534836Y-101573539D02*
X96582455Y-101621158D01*
X96582455Y-101621158D02*
X96630074Y-101716396D01*
X96630074Y-101716396D02*
X96630074Y-102002110D01*
X96630074Y-102002110D02*
X96582455Y-102097348D01*
X96582455Y-102097348D02*
X96534836Y-102144968D01*
X96534836Y-102144968D02*
X96439598Y-102192587D01*
X96439598Y-102192587D02*
X96296741Y-102192587D01*
X97201503Y-102192587D02*
X97106265Y-102144968D01*
X97106265Y-102144968D02*
X97058646Y-102097348D01*
X97058646Y-102097348D02*
X97011027Y-102002110D01*
X97011027Y-102002110D02*
X97011027Y-101716396D01*
X97011027Y-101716396D02*
X97058646Y-101621158D01*
X97058646Y-101621158D02*
X97106265Y-101573539D01*
X97106265Y-101573539D02*
X97201503Y-101525920D01*
X97201503Y-101525920D02*
X97344360Y-101525920D01*
X97344360Y-101525920D02*
X97439598Y-101573539D01*
X97439598Y-101573539D02*
X97487217Y-101621158D01*
X97487217Y-101621158D02*
X97534836Y-101716396D01*
X97534836Y-101716396D02*
X97534836Y-102002110D01*
X97534836Y-102002110D02*
X97487217Y-102097348D01*
X97487217Y-102097348D02*
X97439598Y-102144968D01*
X97439598Y-102144968D02*
X97344360Y-102192587D01*
X97344360Y-102192587D02*
X97201503Y-102192587D01*
X97963408Y-102192587D02*
X97963408Y-101525920D01*
X97963408Y-101621158D02*
X98011027Y-101573539D01*
X98011027Y-101573539D02*
X98106265Y-101525920D01*
X98106265Y-101525920D02*
X98249122Y-101525920D01*
X98249122Y-101525920D02*
X98344360Y-101573539D01*
X98344360Y-101573539D02*
X98391979Y-101668777D01*
X98391979Y-101668777D02*
X98391979Y-102192587D01*
X98391979Y-101668777D02*
X98439598Y-101573539D01*
X98439598Y-101573539D02*
X98534836Y-101525920D01*
X98534836Y-101525920D02*
X98677693Y-101525920D01*
X98677693Y-101525920D02*
X98772932Y-101573539D01*
X98772932Y-101573539D02*
X98820551Y-101668777D01*
X98820551Y-101668777D02*
X98820551Y-102192587D01*
X99296741Y-102192587D02*
X99296741Y-101192587D01*
X99296741Y-101573539D02*
X99391979Y-101525920D01*
X99391979Y-101525920D02*
X99582455Y-101525920D01*
X99582455Y-101525920D02*
X99677693Y-101573539D01*
X99677693Y-101573539D02*
X99725312Y-101621158D01*
X99725312Y-101621158D02*
X99772931Y-101716396D01*
X99772931Y-101716396D02*
X99772931Y-102002110D01*
X99772931Y-102002110D02*
X99725312Y-102097348D01*
X99725312Y-102097348D02*
X99677693Y-102144968D01*
X99677693Y-102144968D02*
X99582455Y-102192587D01*
X99582455Y-102192587D02*
X99391979Y-102192587D01*
X99391979Y-102192587D02*
X99296741Y-102144968D01*
X100344360Y-102192587D02*
X100249122Y-102144968D01*
X100249122Y-102144968D02*
X100201503Y-102097348D01*
X100201503Y-102097348D02*
X100153884Y-102002110D01*
X100153884Y-102002110D02*
X100153884Y-101716396D01*
X100153884Y-101716396D02*
X100201503Y-101621158D01*
X100201503Y-101621158D02*
X100249122Y-101573539D01*
X100249122Y-101573539D02*
X100344360Y-101525920D01*
X100344360Y-101525920D02*
X100487217Y-101525920D01*
X100487217Y-101525920D02*
X100582455Y-101573539D01*
X100582455Y-101573539D02*
X100630074Y-101621158D01*
X100630074Y-101621158D02*
X100677693Y-101716396D01*
X100677693Y-101716396D02*
X100677693Y-102002110D01*
X100677693Y-102002110D02*
X100630074Y-102097348D01*
X100630074Y-102097348D02*
X100582455Y-102144968D01*
X100582455Y-102144968D02*
X100487217Y-102192587D01*
X100487217Y-102192587D02*
X100344360Y-102192587D01*
X101011027Y-102192587D02*
X101534836Y-101525920D01*
X101011027Y-101525920D02*
X101534836Y-102192587D01*
X102677694Y-102192587D02*
X102677694Y-101192587D01*
X102677694Y-101192587D02*
X103058646Y-101192587D01*
X103058646Y-101192587D02*
X103153884Y-101240206D01*
X103153884Y-101240206D02*
X103201503Y-101287825D01*
X103201503Y-101287825D02*
X103249122Y-101383063D01*
X103249122Y-101383063D02*
X103249122Y-101525920D01*
X103249122Y-101525920D02*
X103201503Y-101621158D01*
X103201503Y-101621158D02*
X103153884Y-101668777D01*
X103153884Y-101668777D02*
X103058646Y-101716396D01*
X103058646Y-101716396D02*
X102677694Y-101716396D01*
X104249122Y-102097348D02*
X104201503Y-102144968D01*
X104201503Y-102144968D02*
X104058646Y-102192587D01*
X104058646Y-102192587D02*
X103963408Y-102192587D01*
X103963408Y-102192587D02*
X103820551Y-102144968D01*
X103820551Y-102144968D02*
X103725313Y-102049729D01*
X103725313Y-102049729D02*
X103677694Y-101954491D01*
X103677694Y-101954491D02*
X103630075Y-101764015D01*
X103630075Y-101764015D02*
X103630075Y-101621158D01*
X103630075Y-101621158D02*
X103677694Y-101430682D01*
X103677694Y-101430682D02*
X103725313Y-101335444D01*
X103725313Y-101335444D02*
X103820551Y-101240206D01*
X103820551Y-101240206D02*
X103963408Y-101192587D01*
X103963408Y-101192587D02*
X104058646Y-101192587D01*
X104058646Y-101192587D02*
X104201503Y-101240206D01*
X104201503Y-101240206D02*
X104249122Y-101287825D01*
X105011027Y-101668777D02*
X105153884Y-101716396D01*
X105153884Y-101716396D02*
X105201503Y-101764015D01*
X105201503Y-101764015D02*
X105249122Y-101859253D01*
X105249122Y-101859253D02*
X105249122Y-102002110D01*
X105249122Y-102002110D02*
X105201503Y-102097348D01*
X105201503Y-102097348D02*
X105153884Y-102144968D01*
X105153884Y-102144968D02*
X105058646Y-102192587D01*
X105058646Y-102192587D02*
X104677694Y-102192587D01*
X104677694Y-102192587D02*
X104677694Y-101192587D01*
X104677694Y-101192587D02*
X105011027Y-101192587D01*
X105011027Y-101192587D02*
X105106265Y-101240206D01*
X105106265Y-101240206D02*
X105153884Y-101287825D01*
X105153884Y-101287825D02*
X105201503Y-101383063D01*
X105201503Y-101383063D02*
X105201503Y-101478301D01*
X105201503Y-101478301D02*
X105153884Y-101573539D01*
X105153884Y-101573539D02*
X105106265Y-101621158D01*
X105106265Y-101621158D02*
X105011027Y-101668777D01*
X105011027Y-101668777D02*
X104677694Y-101668777D01*
X95153884Y-105412475D02*
X95153884Y-104412475D01*
X95153884Y-104412475D02*
X95391979Y-104412475D01*
X95391979Y-104412475D02*
X95534836Y-104460094D01*
X95534836Y-104460094D02*
X95630074Y-104555332D01*
X95630074Y-104555332D02*
X95677693Y-104650570D01*
X95677693Y-104650570D02*
X95725312Y-104841046D01*
X95725312Y-104841046D02*
X95725312Y-104983903D01*
X95725312Y-104983903D02*
X95677693Y-105174379D01*
X95677693Y-105174379D02*
X95630074Y-105269617D01*
X95630074Y-105269617D02*
X95534836Y-105364856D01*
X95534836Y-105364856D02*
X95391979Y-105412475D01*
X95391979Y-105412475D02*
X95153884Y-105412475D01*
X96534836Y-105364856D02*
X96439598Y-105412475D01*
X96439598Y-105412475D02*
X96249122Y-105412475D01*
X96249122Y-105412475D02*
X96153884Y-105364856D01*
X96153884Y-105364856D02*
X96106265Y-105269617D01*
X96106265Y-105269617D02*
X96106265Y-104888665D01*
X96106265Y-104888665D02*
X96153884Y-104793427D01*
X96153884Y-104793427D02*
X96249122Y-104745808D01*
X96249122Y-104745808D02*
X96439598Y-104745808D01*
X96439598Y-104745808D02*
X96534836Y-104793427D01*
X96534836Y-104793427D02*
X96582455Y-104888665D01*
X96582455Y-104888665D02*
X96582455Y-104983903D01*
X96582455Y-104983903D02*
X96106265Y-105079141D01*
X96963408Y-105364856D02*
X97058646Y-105412475D01*
X97058646Y-105412475D02*
X97249122Y-105412475D01*
X97249122Y-105412475D02*
X97344360Y-105364856D01*
X97344360Y-105364856D02*
X97391979Y-105269617D01*
X97391979Y-105269617D02*
X97391979Y-105221998D01*
X97391979Y-105221998D02*
X97344360Y-105126760D01*
X97344360Y-105126760D02*
X97249122Y-105079141D01*
X97249122Y-105079141D02*
X97106265Y-105079141D01*
X97106265Y-105079141D02*
X97011027Y-105031522D01*
X97011027Y-105031522D02*
X96963408Y-104936284D01*
X96963408Y-104936284D02*
X96963408Y-104888665D01*
X96963408Y-104888665D02*
X97011027Y-104793427D01*
X97011027Y-104793427D02*
X97106265Y-104745808D01*
X97106265Y-104745808D02*
X97249122Y-104745808D01*
X97249122Y-104745808D02*
X97344360Y-104793427D01*
X97820551Y-105412475D02*
X97820551Y-104745808D01*
X97820551Y-104412475D02*
X97772932Y-104460094D01*
X97772932Y-104460094D02*
X97820551Y-104507713D01*
X97820551Y-104507713D02*
X97868170Y-104460094D01*
X97868170Y-104460094D02*
X97820551Y-104412475D01*
X97820551Y-104412475D02*
X97820551Y-104507713D01*
X98725312Y-104745808D02*
X98725312Y-105555332D01*
X98725312Y-105555332D02*
X98677693Y-105650570D01*
X98677693Y-105650570D02*
X98630074Y-105698189D01*
X98630074Y-105698189D02*
X98534836Y-105745808D01*
X98534836Y-105745808D02*
X98391979Y-105745808D01*
X98391979Y-105745808D02*
X98296741Y-105698189D01*
X98725312Y-105364856D02*
X98630074Y-105412475D01*
X98630074Y-105412475D02*
X98439598Y-105412475D01*
X98439598Y-105412475D02*
X98344360Y-105364856D01*
X98344360Y-105364856D02*
X98296741Y-105317236D01*
X98296741Y-105317236D02*
X98249122Y-105221998D01*
X98249122Y-105221998D02*
X98249122Y-104936284D01*
X98249122Y-104936284D02*
X98296741Y-104841046D01*
X98296741Y-104841046D02*
X98344360Y-104793427D01*
X98344360Y-104793427D02*
X98439598Y-104745808D01*
X98439598Y-104745808D02*
X98630074Y-104745808D01*
X98630074Y-104745808D02*
X98725312Y-104793427D01*
X99201503Y-104745808D02*
X99201503Y-105412475D01*
X99201503Y-104841046D02*
X99249122Y-104793427D01*
X99249122Y-104793427D02*
X99344360Y-104745808D01*
X99344360Y-104745808D02*
X99487217Y-104745808D01*
X99487217Y-104745808D02*
X99582455Y-104793427D01*
X99582455Y-104793427D02*
X99630074Y-104888665D01*
X99630074Y-104888665D02*
X99630074Y-105412475D01*
X100487217Y-105364856D02*
X100391979Y-105412475D01*
X100391979Y-105412475D02*
X100201503Y-105412475D01*
X100201503Y-105412475D02*
X100106265Y-105364856D01*
X100106265Y-105364856D02*
X100058646Y-105269617D01*
X100058646Y-105269617D02*
X100058646Y-104888665D01*
X100058646Y-104888665D02*
X100106265Y-104793427D01*
X100106265Y-104793427D02*
X100201503Y-104745808D01*
X100201503Y-104745808D02*
X100391979Y-104745808D01*
X100391979Y-104745808D02*
X100487217Y-104793427D01*
X100487217Y-104793427D02*
X100534836Y-104888665D01*
X100534836Y-104888665D02*
X100534836Y-104983903D01*
X100534836Y-104983903D02*
X100058646Y-105079141D01*
X101391979Y-105412475D02*
X101391979Y-104412475D01*
X101391979Y-105364856D02*
X101296741Y-105412475D01*
X101296741Y-105412475D02*
X101106265Y-105412475D01*
X101106265Y-105412475D02*
X101011027Y-105364856D01*
X101011027Y-105364856D02*
X100963408Y-105317236D01*
X100963408Y-105317236D02*
X100915789Y-105221998D01*
X100915789Y-105221998D02*
X100915789Y-104936284D01*
X100915789Y-104936284D02*
X100963408Y-104841046D01*
X100963408Y-104841046D02*
X101011027Y-104793427D01*
X101011027Y-104793427D02*
X101106265Y-104745808D01*
X101106265Y-104745808D02*
X101296741Y-104745808D01*
X101296741Y-104745808D02*
X101391979Y-104793427D01*
X102630075Y-105412475D02*
X102630075Y-104412475D01*
X102630075Y-104793427D02*
X102725313Y-104745808D01*
X102725313Y-104745808D02*
X102915789Y-104745808D01*
X102915789Y-104745808D02*
X103011027Y-104793427D01*
X103011027Y-104793427D02*
X103058646Y-104841046D01*
X103058646Y-104841046D02*
X103106265Y-104936284D01*
X103106265Y-104936284D02*
X103106265Y-105221998D01*
X103106265Y-105221998D02*
X103058646Y-105317236D01*
X103058646Y-105317236D02*
X103011027Y-105364856D01*
X103011027Y-105364856D02*
X102915789Y-105412475D01*
X102915789Y-105412475D02*
X102725313Y-105412475D01*
X102725313Y-105412475D02*
X102630075Y-105364856D01*
X103439599Y-104745808D02*
X103677694Y-105412475D01*
X103915789Y-104745808D02*
X103677694Y-105412475D01*
X103677694Y-105412475D02*
X103582456Y-105650570D01*
X103582456Y-105650570D02*
X103534837Y-105698189D01*
X103534837Y-105698189D02*
X103439599Y-105745808D01*
X95106265Y-106736704D02*
X95582455Y-106736704D01*
X95011027Y-107022419D02*
X95344360Y-106022419D01*
X95344360Y-106022419D02*
X95677693Y-107022419D01*
X96011027Y-107022419D02*
X96011027Y-106355752D01*
X96011027Y-106022419D02*
X95963408Y-106070038D01*
X95963408Y-106070038D02*
X96011027Y-106117657D01*
X96011027Y-106117657D02*
X96058646Y-106070038D01*
X96058646Y-106070038D02*
X96011027Y-106022419D01*
X96011027Y-106022419D02*
X96011027Y-106117657D01*
X96915788Y-107022419D02*
X96915788Y-106022419D01*
X96915788Y-106974800D02*
X96820550Y-107022419D01*
X96820550Y-107022419D02*
X96630074Y-107022419D01*
X96630074Y-107022419D02*
X96534836Y-106974800D01*
X96534836Y-106974800D02*
X96487217Y-106927180D01*
X96487217Y-106927180D02*
X96439598Y-106831942D01*
X96439598Y-106831942D02*
X96439598Y-106546228D01*
X96439598Y-106546228D02*
X96487217Y-106450990D01*
X96487217Y-106450990D02*
X96534836Y-106403371D01*
X96534836Y-106403371D02*
X96630074Y-106355752D01*
X96630074Y-106355752D02*
X96820550Y-106355752D01*
X96820550Y-106355752D02*
X96915788Y-106403371D01*
X97820550Y-107022419D02*
X97820550Y-106498609D01*
X97820550Y-106498609D02*
X97772931Y-106403371D01*
X97772931Y-106403371D02*
X97677693Y-106355752D01*
X97677693Y-106355752D02*
X97487217Y-106355752D01*
X97487217Y-106355752D02*
X97391979Y-106403371D01*
X97820550Y-106974800D02*
X97725312Y-107022419D01*
X97725312Y-107022419D02*
X97487217Y-107022419D01*
X97487217Y-107022419D02*
X97391979Y-106974800D01*
X97391979Y-106974800D02*
X97344360Y-106879561D01*
X97344360Y-106879561D02*
X97344360Y-106784323D01*
X97344360Y-106784323D02*
X97391979Y-106689085D01*
X97391979Y-106689085D02*
X97487217Y-106641466D01*
X97487217Y-106641466D02*
X97725312Y-106641466D01*
X97725312Y-106641466D02*
X97820550Y-106593847D01*
X98296741Y-106355752D02*
X98296741Y-107022419D01*
X98296741Y-106450990D02*
X98344360Y-106403371D01*
X98344360Y-106403371D02*
X98439598Y-106355752D01*
X98439598Y-106355752D02*
X98582455Y-106355752D01*
X98582455Y-106355752D02*
X98677693Y-106403371D01*
X98677693Y-106403371D02*
X98725312Y-106498609D01*
X98725312Y-106498609D02*
X98725312Y-107022419D01*
X99915789Y-106974800D02*
X100058646Y-107022419D01*
X100058646Y-107022419D02*
X100296741Y-107022419D01*
X100296741Y-107022419D02*
X100391979Y-106974800D01*
X100391979Y-106974800D02*
X100439598Y-106927180D01*
X100439598Y-106927180D02*
X100487217Y-106831942D01*
X100487217Y-106831942D02*
X100487217Y-106736704D01*
X100487217Y-106736704D02*
X100439598Y-106641466D01*
X100439598Y-106641466D02*
X100391979Y-106593847D01*
X100391979Y-106593847D02*
X100296741Y-106546228D01*
X100296741Y-106546228D02*
X100106265Y-106498609D01*
X100106265Y-106498609D02*
X100011027Y-106450990D01*
X100011027Y-106450990D02*
X99963408Y-106403371D01*
X99963408Y-106403371D02*
X99915789Y-106308133D01*
X99915789Y-106308133D02*
X99915789Y-106212895D01*
X99915789Y-106212895D02*
X99963408Y-106117657D01*
X99963408Y-106117657D02*
X100011027Y-106070038D01*
X100011027Y-106070038D02*
X100106265Y-106022419D01*
X100106265Y-106022419D02*
X100344360Y-106022419D01*
X100344360Y-106022419D02*
X100487217Y-106070038D01*
X100915789Y-106927180D02*
X100963408Y-106974800D01*
X100963408Y-106974800D02*
X100915789Y-107022419D01*
X100915789Y-107022419D02*
X100868170Y-106974800D01*
X100868170Y-106974800D02*
X100915789Y-106927180D01*
X100915789Y-106927180D02*
X100915789Y-107022419D01*
D11*
X107750057Y-76245238D02*
X107702438Y-76340476D01*
X107702438Y-76340476D02*
X107607200Y-76435714D01*
X107607200Y-76435714D02*
X107464342Y-76578571D01*
X107464342Y-76578571D02*
X107416723Y-76673809D01*
X107416723Y-76673809D02*
X107416723Y-76769047D01*
X107654819Y-76721428D02*
X107607200Y-76816666D01*
X107607200Y-76816666D02*
X107511961Y-76911904D01*
X107511961Y-76911904D02*
X107321485Y-76959523D01*
X107321485Y-76959523D02*
X106988152Y-76959523D01*
X106988152Y-76959523D02*
X106797676Y-76911904D01*
X106797676Y-76911904D02*
X106702438Y-76816666D01*
X106702438Y-76816666D02*
X106654819Y-76721428D01*
X106654819Y-76721428D02*
X106654819Y-76530952D01*
X106654819Y-76530952D02*
X106702438Y-76435714D01*
X106702438Y-76435714D02*
X106797676Y-76340476D01*
X106797676Y-76340476D02*
X106988152Y-76292857D01*
X106988152Y-76292857D02*
X107321485Y-76292857D01*
X107321485Y-76292857D02*
X107511961Y-76340476D01*
X107511961Y-76340476D02*
X107607200Y-76435714D01*
X107607200Y-76435714D02*
X107654819Y-76530952D01*
X107654819Y-76530952D02*
X107654819Y-76721428D01*
X107654819Y-75340476D02*
X107654819Y-75911904D01*
X107654819Y-75626190D02*
X106654819Y-75626190D01*
X106654819Y-75626190D02*
X106797676Y-75721428D01*
X106797676Y-75721428D02*
X106892914Y-75816666D01*
X106892914Y-75816666D02*
X106940533Y-75911904D01*
D12*
X90899118Y-75579271D02*
X90899118Y-74309271D01*
X90899118Y-74309271D02*
X91201499Y-74309271D01*
X91201499Y-74309271D02*
X91382928Y-74369747D01*
X91382928Y-74369747D02*
X91503880Y-74490699D01*
X91503880Y-74490699D02*
X91564357Y-74611652D01*
X91564357Y-74611652D02*
X91624833Y-74853556D01*
X91624833Y-74853556D02*
X91624833Y-75034985D01*
X91624833Y-75034985D02*
X91564357Y-75276890D01*
X91564357Y-75276890D02*
X91503880Y-75397842D01*
X91503880Y-75397842D02*
X91382928Y-75518795D01*
X91382928Y-75518795D02*
X91201499Y-75579271D01*
X91201499Y-75579271D02*
X90899118Y-75579271D01*
X92773880Y-74309271D02*
X92169118Y-74309271D01*
X92169118Y-74309271D02*
X92108642Y-74914033D01*
X92108642Y-74914033D02*
X92169118Y-74853556D01*
X92169118Y-74853556D02*
X92290071Y-74793080D01*
X92290071Y-74793080D02*
X92592452Y-74793080D01*
X92592452Y-74793080D02*
X92713404Y-74853556D01*
X92713404Y-74853556D02*
X92773880Y-74914033D01*
X92773880Y-74914033D02*
X92834357Y-75034985D01*
X92834357Y-75034985D02*
X92834357Y-75337366D01*
X92834357Y-75337366D02*
X92773880Y-75458318D01*
X92773880Y-75458318D02*
X92713404Y-75518795D01*
X92713404Y-75518795D02*
X92592452Y-75579271D01*
X92592452Y-75579271D02*
X92290071Y-75579271D01*
X92290071Y-75579271D02*
X92169118Y-75518795D01*
X92169118Y-75518795D02*
X92108642Y-75458318D01*
D13*
X91403121Y-69457376D02*
X91068869Y-68979873D01*
X90830118Y-69457376D02*
X90830118Y-68454620D01*
X90830118Y-68454620D02*
X91212120Y-68454620D01*
X91212120Y-68454620D02*
X91307621Y-68502370D01*
X91307621Y-68502370D02*
X91355371Y-68550120D01*
X91355371Y-68550120D02*
X91403121Y-68645621D01*
X91403121Y-68645621D02*
X91403121Y-68788872D01*
X91403121Y-68788872D02*
X91355371Y-68884372D01*
X91355371Y-68884372D02*
X91307621Y-68932123D01*
X91307621Y-68932123D02*
X91212120Y-68979873D01*
X91212120Y-68979873D02*
X90830118Y-68979873D01*
X91689623Y-68454620D02*
X92023875Y-69457376D01*
X92023875Y-69457376D02*
X92358127Y-68454620D01*
X93217632Y-69457376D02*
X92644629Y-69457376D01*
X92931130Y-69457376D02*
X92931130Y-68454620D01*
X92931130Y-68454620D02*
X92835630Y-68597871D01*
X92835630Y-68597871D02*
X92740129Y-68693371D01*
X92740129Y-68693371D02*
X92644629Y-68741122D01*
D14*
X79453365Y-70561666D02*
X79513842Y-70622142D01*
X79513842Y-70622142D02*
X79574318Y-70803571D01*
X79574318Y-70803571D02*
X79574318Y-70924523D01*
X79574318Y-70924523D02*
X79513842Y-71105952D01*
X79513842Y-71105952D02*
X79392889Y-71226904D01*
X79392889Y-71226904D02*
X79271937Y-71287381D01*
X79271937Y-71287381D02*
X79030032Y-71347857D01*
X79030032Y-71347857D02*
X78848603Y-71347857D01*
X78848603Y-71347857D02*
X78606699Y-71287381D01*
X78606699Y-71287381D02*
X78485746Y-71226904D01*
X78485746Y-71226904D02*
X78364794Y-71105952D01*
X78364794Y-71105952D02*
X78304318Y-70924523D01*
X78304318Y-70924523D02*
X78304318Y-70803571D01*
X78304318Y-70803571D02*
X78364794Y-70622142D01*
X78364794Y-70622142D02*
X78425270Y-70561666D01*
X79574318Y-69352142D02*
X79574318Y-70077857D01*
X79574318Y-69715000D02*
X78304318Y-69715000D01*
X78304318Y-69715000D02*
X78485746Y-69835952D01*
X78485746Y-69835952D02*
X78606699Y-69956904D01*
X78606699Y-69956904D02*
X78667175Y-70077857D01*
D11*
X61261905Y-92454819D02*
X61261905Y-91454819D01*
X61261905Y-91454819D02*
X61500000Y-91454819D01*
X61500000Y-91454819D02*
X61642857Y-91502438D01*
X61642857Y-91502438D02*
X61738095Y-91597676D01*
X61738095Y-91597676D02*
X61785714Y-91692914D01*
X61785714Y-91692914D02*
X61833333Y-91883390D01*
X61833333Y-91883390D02*
X61833333Y-92026247D01*
X61833333Y-92026247D02*
X61785714Y-92216723D01*
X61785714Y-92216723D02*
X61738095Y-92311961D01*
X61738095Y-92311961D02*
X61642857Y-92407200D01*
X61642857Y-92407200D02*
X61500000Y-92454819D01*
X61500000Y-92454819D02*
X61261905Y-92454819D01*
X62166667Y-91454819D02*
X62785714Y-91454819D01*
X62785714Y-91454819D02*
X62452381Y-91835771D01*
X62452381Y-91835771D02*
X62595238Y-91835771D01*
X62595238Y-91835771D02*
X62690476Y-91883390D01*
X62690476Y-91883390D02*
X62738095Y-91931009D01*
X62738095Y-91931009D02*
X62785714Y-92026247D01*
X62785714Y-92026247D02*
X62785714Y-92264342D01*
X62785714Y-92264342D02*
X62738095Y-92359580D01*
X62738095Y-92359580D02*
X62690476Y-92407200D01*
X62690476Y-92407200D02*
X62595238Y-92454819D01*
X62595238Y-92454819D02*
X62309524Y-92454819D01*
X62309524Y-92454819D02*
X62214286Y-92407200D01*
X62214286Y-92407200D02*
X62166667Y-92359580D01*
X66818095Y-92394819D02*
X66818095Y-91394819D01*
X67389523Y-92394819D02*
X66960952Y-91823390D01*
X67389523Y-91394819D02*
X66818095Y-91966247D01*
X58536653Y-74984243D02*
X58536653Y-75699659D01*
X58536653Y-75699659D02*
X58488959Y-75842743D01*
X58488959Y-75842743D02*
X58393570Y-75938132D01*
X58393570Y-75938132D02*
X58250487Y-75985826D01*
X58250487Y-75985826D02*
X58155098Y-75985826D01*
X59538236Y-75985826D02*
X58965903Y-75985826D01*
X59252070Y-75985826D02*
X59252070Y-74984243D01*
X59252070Y-74984243D02*
X59156681Y-75127326D01*
X59156681Y-75127326D02*
X59061292Y-75222715D01*
X59061292Y-75222715D02*
X58965903Y-75270410D01*
X61261905Y-69294819D02*
X61261905Y-68294819D01*
X61261905Y-68294819D02*
X61500000Y-68294819D01*
X61500000Y-68294819D02*
X61642857Y-68342438D01*
X61642857Y-68342438D02*
X61738095Y-68437676D01*
X61738095Y-68437676D02*
X61785714Y-68532914D01*
X61785714Y-68532914D02*
X61833333Y-68723390D01*
X61833333Y-68723390D02*
X61833333Y-68866247D01*
X61833333Y-68866247D02*
X61785714Y-69056723D01*
X61785714Y-69056723D02*
X61738095Y-69151961D01*
X61738095Y-69151961D02*
X61642857Y-69247200D01*
X61642857Y-69247200D02*
X61500000Y-69294819D01*
X61500000Y-69294819D02*
X61261905Y-69294819D01*
X62785714Y-69294819D02*
X62214286Y-69294819D01*
X62500000Y-69294819D02*
X62500000Y-68294819D01*
X62500000Y-68294819D02*
X62404762Y-68437676D01*
X62404762Y-68437676D02*
X62309524Y-68532914D01*
X62309524Y-68532914D02*
X62214286Y-68580533D01*
X66818095Y-71394819D02*
X66818095Y-70394819D01*
X67389523Y-71394819D02*
X66960952Y-70823390D01*
X67389523Y-70394819D02*
X66818095Y-70966247D01*
D12*
X91788333Y-64679271D02*
X91364999Y-64074509D01*
X91062618Y-64679271D02*
X91062618Y-63409271D01*
X91062618Y-63409271D02*
X91546428Y-63409271D01*
X91546428Y-63409271D02*
X91667380Y-63469747D01*
X91667380Y-63469747D02*
X91727857Y-63530223D01*
X91727857Y-63530223D02*
X91788333Y-63651175D01*
X91788333Y-63651175D02*
X91788333Y-63832604D01*
X91788333Y-63832604D02*
X91727857Y-63953556D01*
X91727857Y-63953556D02*
X91667380Y-64014033D01*
X91667380Y-64014033D02*
X91546428Y-64074509D01*
X91546428Y-64074509D02*
X91062618Y-64074509D01*
X92997857Y-64679271D02*
X92272142Y-64679271D01*
X92634999Y-64679271D02*
X92634999Y-63409271D01*
X92634999Y-63409271D02*
X92514047Y-63590699D01*
X92514047Y-63590699D02*
X92393095Y-63711652D01*
X92393095Y-63711652D02*
X92272142Y-63772128D01*
D14*
X80788333Y-92553365D02*
X80727857Y-92613842D01*
X80727857Y-92613842D02*
X80546428Y-92674318D01*
X80546428Y-92674318D02*
X80425476Y-92674318D01*
X80425476Y-92674318D02*
X80244047Y-92613842D01*
X80244047Y-92613842D02*
X80123095Y-92492889D01*
X80123095Y-92492889D02*
X80062618Y-92371937D01*
X80062618Y-92371937D02*
X80002142Y-92130032D01*
X80002142Y-92130032D02*
X80002142Y-91948603D01*
X80002142Y-91948603D02*
X80062618Y-91706699D01*
X80062618Y-91706699D02*
X80123095Y-91585746D01*
X80123095Y-91585746D02*
X80244047Y-91464794D01*
X80244047Y-91464794D02*
X80425476Y-91404318D01*
X80425476Y-91404318D02*
X80546428Y-91404318D01*
X80546428Y-91404318D02*
X80727857Y-91464794D01*
X80727857Y-91464794D02*
X80788333Y-91525270D01*
X81272142Y-91525270D02*
X81332618Y-91464794D01*
X81332618Y-91464794D02*
X81453571Y-91404318D01*
X81453571Y-91404318D02*
X81755952Y-91404318D01*
X81755952Y-91404318D02*
X81876904Y-91464794D01*
X81876904Y-91464794D02*
X81937380Y-91525270D01*
X81937380Y-91525270D02*
X81997857Y-91646222D01*
X81997857Y-91646222D02*
X81997857Y-91767175D01*
X81997857Y-91767175D02*
X81937380Y-91948603D01*
X81937380Y-91948603D02*
X81211666Y-92674318D01*
X81211666Y-92674318D02*
X81997857Y-92674318D01*
D11*
X61261905Y-97924819D02*
X61261905Y-96924819D01*
X61261905Y-96924819D02*
X61500000Y-96924819D01*
X61500000Y-96924819D02*
X61642857Y-96972438D01*
X61642857Y-96972438D02*
X61738095Y-97067676D01*
X61738095Y-97067676D02*
X61785714Y-97162914D01*
X61785714Y-97162914D02*
X61833333Y-97353390D01*
X61833333Y-97353390D02*
X61833333Y-97496247D01*
X61833333Y-97496247D02*
X61785714Y-97686723D01*
X61785714Y-97686723D02*
X61738095Y-97781961D01*
X61738095Y-97781961D02*
X61642857Y-97877200D01*
X61642857Y-97877200D02*
X61500000Y-97924819D01*
X61500000Y-97924819D02*
X61261905Y-97924819D01*
X62214286Y-97020057D02*
X62261905Y-96972438D01*
X62261905Y-96972438D02*
X62357143Y-96924819D01*
X62357143Y-96924819D02*
X62595238Y-96924819D01*
X62595238Y-96924819D02*
X62690476Y-96972438D01*
X62690476Y-96972438D02*
X62738095Y-97020057D01*
X62738095Y-97020057D02*
X62785714Y-97115295D01*
X62785714Y-97115295D02*
X62785714Y-97210533D01*
X62785714Y-97210533D02*
X62738095Y-97353390D01*
X62738095Y-97353390D02*
X62166667Y-97924819D01*
X62166667Y-97924819D02*
X62785714Y-97924819D01*
X66818095Y-97554819D02*
X66818095Y-96554819D01*
X67389523Y-97554819D02*
X66960952Y-96983390D01*
X67389523Y-96554819D02*
X66818095Y-97126247D01*
X61261905Y-73454819D02*
X61261905Y-72454819D01*
X61261905Y-72454819D02*
X61500000Y-72454819D01*
X61500000Y-72454819D02*
X61642857Y-72502438D01*
X61642857Y-72502438D02*
X61738095Y-72597676D01*
X61738095Y-72597676D02*
X61785714Y-72692914D01*
X61785714Y-72692914D02*
X61833333Y-72883390D01*
X61833333Y-72883390D02*
X61833333Y-73026247D01*
X61833333Y-73026247D02*
X61785714Y-73216723D01*
X61785714Y-73216723D02*
X61738095Y-73311961D01*
X61738095Y-73311961D02*
X61642857Y-73407200D01*
X61642857Y-73407200D02*
X61500000Y-73454819D01*
X61500000Y-73454819D02*
X61261905Y-73454819D01*
X62690476Y-72788152D02*
X62690476Y-73454819D01*
X62452381Y-72407200D02*
X62214286Y-73121485D01*
X62214286Y-73121485D02*
X62833333Y-73121485D01*
X66818095Y-75554819D02*
X66818095Y-74554819D01*
X67389523Y-75554819D02*
X66960952Y-74983390D01*
X67389523Y-74554819D02*
X66818095Y-75126247D01*
D15*
%TO.C,Q1*%
X103800000Y-81350000D02*
X103330000Y-81690000D01*
X103330000Y-81010000D01*
X103800000Y-81350000D01*
G36*
X103800000Y-81350000D02*
G01*
X103330000Y-81690000D01*
X103330000Y-81010000D01*
X103800000Y-81350000D01*
G37*
D16*
%TO.C,D5*%
X94598000Y-75798000D02*
X89075000Y-75798000D01*
X89402000Y-78402000D02*
X94598000Y-78402000D01*
%TO.C,RV1*%
X88036000Y-70100000D02*
G75*
G02*
X87836000Y-70100000I-100000J0D01*
G01*
X87836000Y-70100000D02*
G75*
G02*
X88036000Y-70100000I100000J0D01*
G01*
D17*
X95300000Y-73630000D02*
X88700000Y-73630000D01*
X95300000Y-71335000D02*
X95300000Y-73620000D01*
X95300000Y-66630000D02*
X95300000Y-68795000D01*
X88700000Y-73620000D02*
X88700000Y-71335000D01*
X88700000Y-68795000D02*
X88700000Y-66630000D01*
X88700000Y-66630000D02*
X95300000Y-66630000D01*
D16*
%TO.C,C1*%
X71000000Y-68100000D02*
X71000000Y-80100000D01*
X87000000Y-62750000D02*
X87000000Y-80100000D01*
D15*
%TO.C,D3*%
X58260000Y-89840000D02*
X59280000Y-89840000D01*
X63700000Y-91310000D02*
X63700000Y-88370000D01*
X63820000Y-91310000D02*
X63820000Y-88370000D01*
X63940000Y-91310000D02*
X63940000Y-88370000D01*
X65740000Y-89840000D02*
X64720000Y-89840000D01*
X64720000Y-91310000D02*
X59280000Y-91310000D01*
X59280000Y-88370000D01*
X64720000Y-88370000D01*
X64720000Y-91310000D01*
D10*
%TO.C,J1*%
X55550000Y-76475000D02*
X69250000Y-76425000D01*
X55550000Y-87125000D02*
X55500000Y-87125000D01*
X55550000Y-87125000D02*
X55550000Y-76475000D01*
X69250000Y-76425000D02*
X69250000Y-87125000D01*
X69250000Y-87125000D02*
X55550000Y-87125000D01*
D15*
%TO.C,D1*%
X58260000Y-68840000D02*
X59280000Y-68840000D01*
X63700000Y-70310000D02*
X63700000Y-67370000D01*
X63820000Y-70310000D02*
X63820000Y-67370000D01*
X63940000Y-70310000D02*
X63940000Y-67370000D01*
X65740000Y-68840000D02*
X64720000Y-68840000D01*
X64720000Y-70310000D02*
X59280000Y-70310000D01*
X59280000Y-67370000D01*
X64720000Y-67370000D01*
X64720000Y-70310000D01*
D16*
%TO.C,R1*%
X92000000Y-62950000D02*
X92000000Y-65250000D01*
%TO.C,C2*%
X72700000Y-83800000D02*
X72700000Y-86600000D01*
X72700000Y-97600000D02*
X72700000Y-100400000D01*
X72700000Y-100400000D02*
X87500000Y-100400000D01*
X87500000Y-83800000D02*
X72700000Y-83800000D01*
X87500000Y-100400000D02*
X89300000Y-98600000D01*
X89300000Y-85600000D02*
X87500000Y-83800000D01*
X89300000Y-86600000D02*
X89300000Y-85600000D01*
X89300000Y-98600000D02*
X89300000Y-97600000D01*
D10*
X91600000Y-92100000D02*
X91600000Y-92100000D01*
X91700000Y-92100000D02*
X91700000Y-92100000D01*
X91600000Y-92100000D02*
G75*
G02*
X91700000Y-92100000I50000J0D01*
G01*
X91700000Y-92100000D02*
G75*
G02*
X91600000Y-92100000I-50000J0D01*
G01*
D15*
%TO.C,R2*%
X90272936Y-80190000D02*
X91727064Y-80190000D01*
X90272936Y-82010000D02*
X91727064Y-82010000D01*
%TO.C,D2*%
X58260000Y-95000000D02*
X59280000Y-95000000D01*
X63700000Y-96470000D02*
X63700000Y-93530000D01*
X63820000Y-96470000D02*
X63820000Y-93530000D01*
X63940000Y-96470000D02*
X63940000Y-93530000D01*
X65740000Y-95000000D02*
X64720000Y-95000000D01*
X64720000Y-96470000D02*
X59280000Y-96470000D01*
X59280000Y-93530000D01*
X64720000Y-93530000D01*
X64720000Y-96470000D01*
%TO.C,D4*%
X58260000Y-73000000D02*
X59280000Y-73000000D01*
X63700000Y-74470000D02*
X63700000Y-71530000D01*
X63820000Y-74470000D02*
X63820000Y-71530000D01*
X63940000Y-74470000D02*
X63940000Y-71530000D01*
X65740000Y-73000000D02*
X64720000Y-73000000D01*
X64720000Y-74470000D02*
X59280000Y-74470000D01*
X59280000Y-71530000D01*
X64720000Y-71530000D01*
X64720000Y-74470000D01*
%TD*%
M02*
