%TF.GenerationSoftware,KiCad,Pcbnew,9.0.2*%
%TF.CreationDate,2025-09-10T19:30:47-05:00*%
%TF.ProjectId,EE101_Board,45453130-315f-4426-9f61-72642e6b6963,rev?*%
%TF.SameCoordinates,Original*%
%TF.FileFunction,Soldermask,Bot*%
%TF.FilePolarity,Negative*%
%FSLAX46Y46*%
G04 Gerber Fmt 4.6, Leading zero omitted, Abs format (unit mm)*
G04 Created by KiCad (PCBNEW 9.0.2) date 2025-09-10 19:30:47*
%MOMM*%
%LPD*%
G01*
G04 APERTURE LIST*
G04 Aperture macros list*
%AMRoundRect*
0 Rectangle with rounded corners*
0 $1 Rounding radius*
0 $2 $3 $4 $5 $6 $7 $8 $9 X,Y pos of 4 corners*
0 Add a 4 corners polygon primitive as box body*
4,1,4,$2,$3,$4,$5,$6,$7,$8,$9,$2,$3,0*
0 Add four circle primitives for the rounded corners*
1,1,$1+$1,$2,$3*
1,1,$1+$1,$4,$5*
1,1,$1+$1,$6,$7*
1,1,$1+$1,$8,$9*
0 Add four rect primitives between the rounded corners*
20,1,$1+$1,$2,$3,$4,$5,0*
20,1,$1+$1,$4,$5,$6,$7,0*
20,1,$1+$1,$6,$7,$8,$9,0*
20,1,$1+$1,$8,$9,$2,$3,0*%
G04 Aperture macros list end*
%ADD10C,1.426000*%
%ADD11RoundRect,0.102000X-0.611000X-0.611000X0.611000X-0.611000X0.611000X0.611000X-0.611000X0.611000X0*%
%ADD12R,1.761998X0.354800*%
%ADD13R,2.400000X4.870000*%
%ADD14R,4.400000X1.900000*%
%ADD15RoundRect,0.249999X0.850001X0.850001X-0.850001X0.850001X-0.850001X-0.850001X0.850001X-0.850001X0*%
%ADD16C,2.200000*%
%ADD17C,1.600000*%
%ADD18R,2.100000X2.100000*%
%ADD19C,2.100000*%
%ADD20RoundRect,0.237500X0.300000X0.237500X-0.300000X0.237500X-0.300000X-0.237500X0.300000X-0.237500X0*%
%ADD21RoundRect,0.250000X0.412500X0.650000X-0.412500X0.650000X-0.412500X-0.650000X0.412500X-0.650000X0*%
%ADD22R,3.400000X5.000000*%
%ADD23RoundRect,0.250000X-0.412500X-0.650000X0.412500X-0.650000X0.412500X0.650000X-0.412500X0.650000X0*%
%ADD24RoundRect,0.250000X0.337500X0.475000X-0.337500X0.475000X-0.337500X-0.475000X0.337500X-0.475000X0*%
%ADD25RoundRect,0.250000X-0.337500X-0.475000X0.337500X-0.475000X0.337500X0.475000X-0.337500X0.475000X0*%
%ADD26RoundRect,0.102000X-1.200000X-1.275000X1.200000X-1.275000X1.200000X1.275000X-1.200000X1.275000X0*%
%ADD27RoundRect,0.102000X-1.450000X-1.275000X1.450000X-1.275000X1.450000X1.275000X-1.450000X1.275000X0*%
G04 APERTURE END LIST*
D10*
%TO.C,RV1*%
X94540000Y-70100000D03*
X92000000Y-67560000D03*
D11*
X89460000Y-70100000D03*
%TD*%
D12*
%TO.C,U1*%
X82942000Y-75424937D03*
X82942000Y-76074949D03*
X82942000Y-76724960D03*
X82942000Y-77374972D03*
X82942000Y-78024983D03*
X82942000Y-78674994D03*
X82942000Y-79325006D03*
X82942000Y-79975017D03*
X82942000Y-80625028D03*
X82942000Y-81275040D03*
X82942000Y-81925051D03*
X82942000Y-82575063D03*
X77000000Y-82575063D03*
X77000000Y-81925051D03*
X77000000Y-81275040D03*
X77000000Y-80625028D03*
X77000000Y-79975017D03*
X77000000Y-79325006D03*
X77000000Y-78674994D03*
X77000000Y-78024983D03*
X77000000Y-77374972D03*
X77000000Y-76724960D03*
X77000000Y-76074949D03*
X77000000Y-75424937D03*
D13*
X79971000Y-79000000D03*
%TD*%
D14*
%TO.C,C17*%
X78775000Y-90250000D03*
X87475000Y-90250000D03*
%TD*%
D15*
%TO.C,D3*%
X67080000Y-89840000D03*
D16*
X56920000Y-89840000D03*
%TD*%
D17*
%TO.C,J1*%
X58200000Y-81675000D03*
X65200000Y-81675000D03*
%TD*%
D15*
%TO.C,D1*%
X67080000Y-68840000D03*
D16*
X56920000Y-68840000D03*
%TD*%
D15*
%TO.C,D2*%
X67080000Y-95000000D03*
D16*
X56920000Y-95000000D03*
%TD*%
D15*
%TO.C,D4*%
X67080000Y-73000000D03*
D16*
X56920000Y-73000000D03*
%TD*%
D18*
%TO.C,J4*%
X123475000Y-83225000D03*
D19*
X115275000Y-83225000D03*
X123475000Y-88225000D03*
X115275000Y-88225000D03*
%TD*%
D20*
%TO.C,C12*%
X73725000Y-81000000D03*
X72000000Y-81000000D03*
%TD*%
D21*
%TO.C,C9*%
X104162500Y-69475000D03*
X101037500Y-69475000D03*
%TD*%
D14*
%TO.C,C15*%
X88475000Y-102625000D03*
X97175000Y-102625000D03*
%TD*%
D21*
%TO.C,C10*%
X104812500Y-97275000D03*
X101687500Y-97275000D03*
%TD*%
%TO.C,C3*%
X74387500Y-91625000D03*
X71262500Y-91625000D03*
%TD*%
D14*
%TO.C,C5*%
X82350000Y-67250000D03*
X73650000Y-67250000D03*
%TD*%
D22*
%TO.C,L2*%
X102450000Y-77000000D03*
X93550000Y-77000000D03*
%TD*%
D21*
%TO.C,C4*%
X74387500Y-94625000D03*
X71262500Y-94625000D03*
%TD*%
D23*
%TO.C,C6*%
X86337500Y-75300000D03*
X89462500Y-75300000D03*
%TD*%
D21*
%TO.C,C7*%
X88862500Y-82575000D03*
X85737500Y-82575000D03*
%TD*%
D22*
%TO.C,L1*%
X102450000Y-89000000D03*
X93550000Y-89000000D03*
%TD*%
D24*
%TO.C,C14*%
X104362500Y-106075000D03*
X102287500Y-106075000D03*
%TD*%
D18*
%TO.C,J3*%
X123575000Y-98500000D03*
D19*
X115375000Y-98500000D03*
X123575000Y-103500000D03*
X115375000Y-103500000D03*
%TD*%
D21*
%TO.C,C8*%
X89362500Y-79100000D03*
X86237500Y-79100000D03*
%TD*%
D20*
%TO.C,C11*%
X73725000Y-77000000D03*
X72000000Y-77000000D03*
%TD*%
D14*
%TO.C,C16*%
X109275000Y-71275000D03*
X117975000Y-71275000D03*
%TD*%
D25*
%TO.C,C13*%
X102237500Y-100575000D03*
X104312500Y-100575000D03*
%TD*%
D17*
%TO.C,J2*%
X58500000Y-103000000D03*
X65500000Y-103000000D03*
D26*
X59300000Y-106675000D03*
X57400000Y-99325000D03*
D27*
X66700000Y-99325000D03*
%TD*%
M02*
