%TF.GenerationSoftware,KiCad,Pcbnew,9.0.2*%
%TF.CreationDate,2025-09-10T19:30:47-05:00*%
%TF.ProjectId,EE101_Board,45453130-315f-4426-9f61-72642e6b6963,rev?*%
%TF.SameCoordinates,Original*%
%TF.FileFunction,Copper,L2,Bot*%
%TF.FilePolarity,Positive*%
%FSLAX46Y46*%
G04 Gerber Fmt 4.6, Leading zero omitted, Abs format (unit mm)*
G04 Created by KiCad (PCBNEW 9.0.2) date 2025-09-10 19:30:47*
%MOMM*%
%LPD*%
G01*
G04 APERTURE LIST*
G04 Aperture macros list*
%AMRoundRect*
0 Rectangle with rounded corners*
0 $1 Rounding radius*
0 $2 $3 $4 $5 $6 $7 $8 $9 X,Y pos of 4 corners*
0 Add a 4 corners polygon primitive as box body*
4,1,4,$2,$3,$4,$5,$6,$7,$8,$9,$2,$3,0*
0 Add four circle primitives for the rounded corners*
1,1,$1+$1,$2,$3*
1,1,$1+$1,$4,$5*
1,1,$1+$1,$6,$7*
1,1,$1+$1,$8,$9*
0 Add four rect primitives between the rounded corners*
20,1,$1+$1,$2,$3,$4,$5,0*
20,1,$1+$1,$4,$5,$6,$7,0*
20,1,$1+$1,$6,$7,$8,$9,0*
20,1,$1+$1,$8,$9,$2,$3,0*%
G04 Aperture macros list end*
%TA.AperFunction,ComponentPad*%
%ADD10C,1.222000*%
%TD*%
%TA.AperFunction,ComponentPad*%
%ADD11R,1.222000X1.222000*%
%TD*%
%TA.AperFunction,SMDPad,CuDef*%
%ADD12R,1.761998X0.354800*%
%TD*%
%TA.AperFunction,SMDPad,CuDef*%
%ADD13R,2.400000X4.870000*%
%TD*%
%TA.AperFunction,SMDPad,CuDef*%
%ADD14R,4.400000X1.900000*%
%TD*%
%TA.AperFunction,ComponentPad*%
%ADD15RoundRect,0.249999X0.850001X0.850001X-0.850001X0.850001X-0.850001X-0.850001X0.850001X-0.850001X0*%
%TD*%
%TA.AperFunction,ComponentPad*%
%ADD16C,2.200000*%
%TD*%
%TA.AperFunction,ComponentPad*%
%ADD17R,2.100000X2.100000*%
%TD*%
%TA.AperFunction,ComponentPad*%
%ADD18C,2.100000*%
%TD*%
%TA.AperFunction,SMDPad,CuDef*%
%ADD19RoundRect,0.237500X0.300000X0.237500X-0.300000X0.237500X-0.300000X-0.237500X0.300000X-0.237500X0*%
%TD*%
%TA.AperFunction,SMDPad,CuDef*%
%ADD20RoundRect,0.250000X0.412500X0.650000X-0.412500X0.650000X-0.412500X-0.650000X0.412500X-0.650000X0*%
%TD*%
%TA.AperFunction,SMDPad,CuDef*%
%ADD21R,3.400000X5.000000*%
%TD*%
%TA.AperFunction,SMDPad,CuDef*%
%ADD22RoundRect,0.250000X-0.412500X-0.650000X0.412500X-0.650000X0.412500X0.650000X-0.412500X0.650000X0*%
%TD*%
%TA.AperFunction,SMDPad,CuDef*%
%ADD23RoundRect,0.250000X0.337500X0.475000X-0.337500X0.475000X-0.337500X-0.475000X0.337500X-0.475000X0*%
%TD*%
%TA.AperFunction,SMDPad,CuDef*%
%ADD24RoundRect,0.250000X-0.337500X-0.475000X0.337500X-0.475000X0.337500X0.475000X-0.337500X0.475000X0*%
%TD*%
%TA.AperFunction,SMDPad,CuDef*%
%ADD25R,2.400000X2.550000*%
%TD*%
%TA.AperFunction,SMDPad,CuDef*%
%ADD26R,2.900000X2.550000*%
%TD*%
%TA.AperFunction,ViaPad*%
%ADD27C,0.600000*%
%TD*%
%TA.AperFunction,Conductor*%
%ADD28C,0.200000*%
%TD*%
G04 APERTURE END LIST*
D10*
%TO.P,RV1,3,3*%
%TO.N,0*%
X94540000Y-70100000D03*
%TO.P,RV1,2,2*%
%TO.N,Net-(Q1-G)*%
X92000000Y-67560000D03*
D11*
%TO.P,RV1,1,1*%
%TO.N,Net-(D5-K)*%
X89460000Y-70100000D03*
%TD*%
D12*
%TO.P,U1,1,PVCCL*%
%TO.N,Net-(Q1-S)*%
X82942000Y-75424937D03*
%TO.P,U1,2,SD*%
%TO.N,unconnected-(U1-SD-Pad2)*%
X82942000Y-76074949D03*
%TO.P,U1,3,PVCCL*%
%TO.N,Net-(Q1-S)*%
X82942000Y-76724960D03*
%TO.P,U1,4,MUTE*%
%TO.N,unconnected-(U1-MUTE-Pad4)*%
X82942000Y-77374972D03*
%TO.P,U1,5,LIN*%
%TO.N,Net-(U1-LIN)*%
X82942000Y-78024983D03*
%TO.P,U1,6,RIN*%
%TO.N,Net-(U1-RIN)*%
X82942000Y-78674994D03*
%TO.P,U1,7,BYPASS*%
%TO.N,Net-(U1-BYPASS)*%
X82942000Y-79325006D03*
%TO.P,U1,8,AGND*%
%TO.N,0*%
X82942000Y-79975017D03*
%TO.P,U1,9,AGND*%
X82942000Y-80625028D03*
%TO.P,U1,10,PVCCR*%
%TO.N,Net-(Q1-S)*%
X82942000Y-81275040D03*
%TO.P,U1,11,VCLAMP*%
%TO.N,Net-(U1-VCLAMP)*%
X82942000Y-81925051D03*
%TO.P,U1,12,PVCCR*%
%TO.N,Net-(Q1-S)*%
X82942000Y-82575063D03*
%TO.P,U1,13,PGNDR*%
%TO.N,0*%
X77000000Y-82575063D03*
%TO.P,U1,14,PGNDR*%
X77000000Y-81925051D03*
%TO.P,U1,15,ROUT*%
%TO.N,Net-(U1-ROUT)*%
X77000000Y-81275040D03*
%TO.P,U1,16,BSR*%
%TO.N,Net-(U1-BSR)*%
X77000000Y-80625028D03*
%TO.P,U1,17,GAIN1*%
%TO.N,unconnected-(U1-GAIN1-Pad17)*%
X77000000Y-79975017D03*
%TO.P,U1,18,GAIN0*%
%TO.N,unconnected-(U1-GAIN0-Pad18)*%
X77000000Y-79325006D03*
%TO.P,U1,19,AVCC*%
%TO.N,Net-(Q1-S)*%
X77000000Y-78674994D03*
%TO.P,U1,20,AVCC*%
X77000000Y-78024983D03*
%TO.P,U1,21,BSL*%
%TO.N,Net-(U1-BSL)*%
X77000000Y-77374972D03*
%TO.P,U1,22,LOUT*%
%TO.N,Net-(U1-LOUT)*%
X77000000Y-76724960D03*
%TO.P,U1,23,PGNDL*%
%TO.N,0*%
X77000000Y-76074949D03*
%TO.P,U1,24,PGNDL*%
X77000000Y-75424937D03*
D13*
%TO.P,U1,25,THERMAL*%
X79971000Y-79000000D03*
%TD*%
D14*
%TO.P,C17,2*%
%TO.N,0*%
X78775000Y-90250000D03*
%TO.P,C17,1*%
%TO.N,Net-(Q1-S)*%
X87475000Y-90250000D03*
%TD*%
D15*
%TO.P,D3,1,K*%
%TO.N,Net-(D1-A)*%
X67080000Y-89840000D03*
D16*
%TO.P,D3,2,A*%
%TO.N,0*%
X56920000Y-89840000D03*
%TD*%
D15*
%TO.P,D1,1,K*%
%TO.N,Net-(D1-K)*%
X67080000Y-68840000D03*
D16*
%TO.P,D1,2,A*%
%TO.N,Net-(D1-A)*%
X56920000Y-68840000D03*
%TD*%
D15*
%TO.P,D2,1,K*%
%TO.N,Net-(D2-K)*%
X67080000Y-95000000D03*
D16*
%TO.P,D2,2,A*%
%TO.N,0*%
X56920000Y-95000000D03*
%TD*%
D15*
%TO.P,D4,1,K*%
%TO.N,Net-(D1-K)*%
X67080000Y-73000000D03*
D16*
%TO.P,D4,2,A*%
%TO.N,Net-(D2-K)*%
X56920000Y-73000000D03*
%TD*%
D17*
%TO.P,J4,1,Pin_1*%
%TO.N,Net-(J4-Pin_1)*%
X123475000Y-83225000D03*
D18*
X115275000Y-83225000D03*
%TO.P,J4,2,Pin_2*%
%TO.N,0*%
X123475000Y-88225000D03*
X115275000Y-88225000D03*
%TD*%
D19*
%TO.P,C12,1*%
%TO.N,Net-(U1-BSR)*%
X73725000Y-81000000D03*
%TO.P,C12,2*%
%TO.N,Net-(U1-ROUT)*%
X72000000Y-81000000D03*
%TD*%
D20*
%TO.P,C9,1*%
%TO.N,Net-(Q1-S)*%
X104162500Y-69475000D03*
%TO.P,C9,2*%
%TO.N,0*%
X101037500Y-69475000D03*
%TD*%
D14*
%TO.P,C15,1*%
%TO.N,Net-(C13-Pad1)*%
X88475000Y-102625000D03*
%TO.P,C15,2*%
%TO.N,Net-(J3-Pin_1)*%
X97175000Y-102625000D03*
%TD*%
D20*
%TO.P,C10,1*%
%TO.N,Net-(Q1-S)*%
X104812500Y-97275000D03*
%TO.P,C10,2*%
%TO.N,0*%
X101687500Y-97275000D03*
%TD*%
%TO.P,C3,1*%
%TO.N,Net-(C3-Pad1)*%
X74387500Y-91625000D03*
%TO.P,C3,2*%
%TO.N,Net-(U1-LIN)*%
X71262500Y-91625000D03*
%TD*%
D14*
%TO.P,C5,1*%
%TO.N,Net-(Q1-S)*%
X82350000Y-67250000D03*
%TO.P,C5,2*%
%TO.N,0*%
X73650000Y-67250000D03*
%TD*%
D21*
%TO.P,L2,1,1*%
%TO.N,Net-(U1-ROUT)*%
X102450000Y-77000000D03*
%TO.P,L2,2,2*%
%TO.N,Net-(C14-Pad2)*%
X93550000Y-77000000D03*
%TD*%
D20*
%TO.P,C4,1*%
%TO.N,Net-(C4-Pad1)*%
X74387500Y-94625000D03*
%TO.P,C4,2*%
%TO.N,Net-(U1-RIN)*%
X71262500Y-94625000D03*
%TD*%
D22*
%TO.P,C6,1*%
%TO.N,Net-(U1-BYPASS)*%
X86337500Y-75300000D03*
%TO.P,C6,2*%
%TO.N,0*%
X89462500Y-75300000D03*
%TD*%
D20*
%TO.P,C7,1*%
%TO.N,Net-(U1-VCLAMP)*%
X88862500Y-82575000D03*
%TO.P,C7,2*%
%TO.N,0*%
X85737500Y-82575000D03*
%TD*%
D21*
%TO.P,L1,1,1*%
%TO.N,Net-(U1-LOUT)*%
X102450000Y-89000000D03*
%TO.P,L1,2,2*%
%TO.N,Net-(C13-Pad1)*%
X93550000Y-89000000D03*
%TD*%
D23*
%TO.P,C14,1*%
%TO.N,0*%
X104362500Y-106075000D03*
%TO.P,C14,2*%
%TO.N,Net-(C14-Pad2)*%
X102287500Y-106075000D03*
%TD*%
D17*
%TO.P,J3,1,Pin_1*%
%TO.N,Net-(J3-Pin_1)*%
X123575000Y-98500000D03*
D18*
X115375000Y-98500000D03*
%TO.P,J3,2,Pin_2*%
%TO.N,0*%
X123575000Y-103500000D03*
X115375000Y-103500000D03*
%TD*%
D20*
%TO.P,C8,1*%
%TO.N,Net-(Q1-S)*%
X89362500Y-79100000D03*
%TO.P,C8,2*%
%TO.N,0*%
X86237500Y-79100000D03*
%TD*%
D19*
%TO.P,C11,1*%
%TO.N,Net-(U1-BSL)*%
X73725000Y-77000000D03*
%TO.P,C11,2*%
%TO.N,Net-(U1-LOUT)*%
X72000000Y-77000000D03*
%TD*%
D14*
%TO.P,C16,1*%
%TO.N,Net-(C14-Pad2)*%
X109275000Y-71275000D03*
%TO.P,C16,2*%
%TO.N,Net-(J4-Pin_1)*%
X117975000Y-71275000D03*
%TD*%
D24*
%TO.P,C13,1*%
%TO.N,Net-(C13-Pad1)*%
X102237500Y-100575000D03*
%TO.P,C13,2*%
%TO.N,0*%
X104312500Y-100575000D03*
%TD*%
D25*
%TO.P,J2,R*%
%TO.N,Net-(C4-Pad1)*%
X59300000Y-106675000D03*
%TO.P,J2,S*%
%TO.N,0*%
X57400000Y-99325000D03*
D26*
%TO.P,J2,T*%
%TO.N,Net-(C3-Pad1)*%
X66700000Y-99325000D03*
%TD*%
D27*
%TO.N,0*%
X92600000Y-81100000D03*
%TO.N,Net-(Q1-S)*%
X81300000Y-82400000D03*
%TO.N,Net-(U1-ROUT)*%
X84500000Y-83900000D03*
X88700000Y-85200000D03*
X98300000Y-83000000D03*
X90300000Y-85200000D03*
%TO.N,Net-(U1-LOUT)*%
X92900000Y-84600000D03*
X102400000Y-88900000D03*
X69699994Y-79700000D03*
X74000000Y-84100000D03*
%TO.N,Net-(Q1-S)*%
X81700000Y-75400000D03*
X74900000Y-78700000D03*
X84282477Y-81255397D03*
X89400000Y-81000000D03*
X87500000Y-91900000D03*
%TO.N,Net-(C14-Pad2)*%
X95700000Y-94600000D03*
%TO.N,Net-(U1-RIN)*%
X70499997Y-79700000D03*
X84165687Y-73934313D03*
%TO.N,Net-(U1-LIN)*%
X71300000Y-79700000D03*
X83600000Y-74500000D03*
%TO.N,Net-(U1-VCLAMP)*%
X84575000Y-82000000D03*
X87000000Y-82100000D03*
%TO.N,Net-(Q1-S)*%
X106000000Y-79600000D03*
%TO.N,Net-(C14-Pad2)*%
X95700265Y-85499735D03*
%TO.N,0*%
X115150000Y-90950000D03*
X115375000Y-101025000D03*
X77000000Y-88500000D03*
X79891994Y-82054853D03*
%TD*%
D28*
%TO.N,0*%
X77000000Y-75424937D02*
X77000000Y-70600000D01*
X77000000Y-70600000D02*
X73650000Y-67250000D01*
%TO.N,Net-(Q1-S)*%
X82350000Y-74832937D02*
X82350000Y-67250000D01*
%TO.N,0*%
X93152000Y-83800000D02*
X93152000Y-81652000D01*
X93152000Y-81652000D02*
X92600000Y-81100000D01*
%TO.N,Net-(Q1-S)*%
X81303451Y-82403451D02*
X81300000Y-82400000D01*
X81760001Y-82403451D02*
X81303451Y-82403451D01*
%TO.N,Net-(U1-ROUT)*%
X90300000Y-85200000D02*
X88700000Y-85200000D01*
X98300000Y-83000000D02*
X102450000Y-78850000D01*
X102450000Y-78850000D02*
X102450000Y-77000000D01*
X75549000Y-81776000D02*
X75549000Y-83649000D01*
X75549000Y-83649000D02*
X75800000Y-83900000D01*
X75800000Y-83900000D02*
X84500000Y-83900000D01*
%TO.N,Net-(C14-Pad2)*%
X95700000Y-85499470D02*
X95700000Y-82600000D01*
X93550000Y-80450000D02*
X93550000Y-77000000D01*
X95700265Y-85499735D02*
X95700000Y-85499470D01*
X95700000Y-82600000D02*
X93550000Y-80450000D01*
%TO.N,Net-(U1-LOUT)*%
X74000000Y-84100000D02*
X74500000Y-84600000D01*
X69699994Y-79300006D02*
X69699994Y-79700000D01*
X74500000Y-84600000D02*
X92900000Y-84600000D01*
X72000000Y-77000000D02*
X69699994Y-79300006D01*
%TO.N,Net-(Q1-S)*%
X76324983Y-78700000D02*
X74900000Y-78700000D01*
X77000000Y-78024983D02*
X76324983Y-78700000D01*
X84282477Y-81255397D02*
X82961643Y-81255397D01*
X82961643Y-81255397D02*
X82942000Y-81275040D01*
%TO.N,0*%
X77000000Y-82575063D02*
X77000000Y-81925051D01*
%TO.N,Net-(C14-Pad2)*%
X109275000Y-71275000D02*
X106274000Y-68274000D01*
X103514840Y-68274000D02*
X102700000Y-69088840D01*
X102700000Y-70500000D02*
X96200000Y-77000000D01*
X106274000Y-68274000D02*
X103514840Y-68274000D01*
X102700000Y-69088840D02*
X102700000Y-70500000D01*
X96200000Y-77000000D02*
X93550000Y-77000000D01*
%TO.N,Net-(Q1-S)*%
X89362500Y-80962500D02*
X89400000Y-81000000D01*
X89362500Y-79100000D02*
X89362500Y-80962500D01*
X104812500Y-97275000D02*
X104812500Y-80787500D01*
X104812500Y-80787500D02*
X106000000Y-79600000D01*
X87475000Y-91875000D02*
X87500000Y-91900000D01*
X87475000Y-90250000D02*
X87475000Y-91875000D01*
%TO.N,0*%
X104312500Y-100575000D02*
X101687500Y-97950000D01*
X101687500Y-97950000D02*
X101687500Y-97275000D01*
%TO.N,Net-(C13-Pad1)*%
X102237500Y-100575000D02*
X102237500Y-99787443D01*
X102237500Y-99787443D02*
X93550000Y-91099943D01*
X93550000Y-91099943D02*
X93550000Y-89000000D01*
%TO.N,Net-(C14-Pad2)*%
X100724000Y-99624000D02*
X95700000Y-94600000D01*
X100724000Y-104511500D02*
X100724000Y-99624000D01*
%TO.N,0*%
X104362500Y-106075000D02*
X104362500Y-105862500D01*
X104362500Y-105862500D02*
X104312500Y-105812500D01*
X104312500Y-105812500D02*
X104312500Y-100575000D01*
%TO.N,Net-(U1-RIN)*%
X83869477Y-78674994D02*
X84524999Y-78019472D01*
X84524999Y-78019472D02*
X84524999Y-74293625D01*
X70300000Y-79899997D02*
X70300000Y-93662500D01*
X82942000Y-78674994D02*
X83869477Y-78674994D01*
X84524999Y-74293625D02*
X84165687Y-73934313D01*
X70499997Y-79700000D02*
X70300000Y-79899997D01*
X70300000Y-93662500D02*
X71262500Y-94625000D01*
%TO.N,0*%
X89462500Y-75300000D02*
X89462500Y-75875000D01*
X89462500Y-75875000D02*
X86237500Y-79100000D01*
%TO.N,Net-(U1-BYPASS)*%
X82942000Y-79325006D02*
X84022999Y-79325006D01*
X84022999Y-79325006D02*
X86337500Y-77010505D01*
X86337500Y-77010505D02*
X86337500Y-75300000D01*
%TO.N,0*%
X84687528Y-80625028D02*
X84712472Y-80625028D01*
X84712472Y-80625028D02*
X86237500Y-79100000D01*
%TO.N,Net-(U1-LIN)*%
X84123999Y-77853372D02*
X84123999Y-75023999D01*
X83952388Y-78024983D02*
X84123999Y-77853372D01*
X71300000Y-79700000D02*
X71100000Y-79900000D01*
X84123999Y-75023999D02*
X83600000Y-74500000D01*
X71100000Y-79900000D02*
X71100000Y-91462500D01*
X82942000Y-78024983D02*
X83952388Y-78024983D01*
X71100000Y-91462500D02*
X71262500Y-91625000D01*
%TO.N,Net-(Q1-S)*%
X82350000Y-74832937D02*
X82942000Y-75424937D01*
%TO.N,Net-(J3-Pin_1)*%
X123575000Y-98500000D02*
X124926000Y-99851000D01*
X124926000Y-104059603D02*
X121884603Y-107101000D01*
X124926000Y-99851000D02*
X124926000Y-104059603D01*
X121884603Y-107101000D02*
X101651000Y-107101000D01*
X101651000Y-107101000D02*
X97175000Y-102625000D01*
%TO.N,Net-(U1-VCLAMP)*%
X83016949Y-82000000D02*
X82942000Y-81925051D01*
X88862500Y-82575000D02*
X87475000Y-82575000D01*
X87475000Y-82575000D02*
X87000000Y-82100000D01*
X84575000Y-82000000D02*
X83016949Y-82000000D01*
%TO.N,0*%
X77000000Y-81925051D02*
X79500000Y-81925051D01*
X79971000Y-79000000D02*
X79170000Y-79801000D01*
X79385373Y-81925051D02*
X79500000Y-81925051D01*
X79170000Y-79801000D02*
X79170000Y-81709678D01*
X79170000Y-81709678D02*
X79385373Y-81925051D01*
%TO.N,Net-(Q1-S)*%
X82942000Y-76724960D02*
X81931612Y-76724960D01*
X81861001Y-75424937D02*
X82942000Y-75424937D01*
X81931612Y-76724960D02*
X81760001Y-76553349D01*
X81760001Y-76553349D02*
X81760001Y-75525937D01*
X81760001Y-75525937D02*
X81861001Y-75424937D01*
%TO.N,Net-(U1-LOUT)*%
X77000000Y-76724960D02*
X74755594Y-76724960D01*
X72776000Y-76224000D02*
X72000000Y-77000000D01*
X74755594Y-76724960D02*
X74254634Y-76224000D01*
X74254634Y-76224000D02*
X72776000Y-76224000D01*
%TO.N,Net-(U1-BSL)*%
X77000000Y-77374972D02*
X74099972Y-77374972D01*
X74099972Y-77374972D02*
X73725000Y-77000000D01*
%TO.N,Net-(Q1-S)*%
X77000000Y-78024983D02*
X77000000Y-78674994D01*
X82942000Y-82575063D02*
X81931613Y-82575063D01*
X81931613Y-82575063D02*
X81760001Y-82403451D01*
X81760001Y-82403451D02*
X81760001Y-81376040D01*
X81760001Y-81376040D02*
X81861001Y-81275040D01*
X81861001Y-81275040D02*
X82942000Y-81275040D01*
%TO.N,Net-(C3-Pad1)*%
X66700000Y-99325000D02*
X69775000Y-99325000D01*
X69775000Y-99325000D02*
X73100000Y-96000000D01*
X73100000Y-92912500D02*
X74387500Y-91625000D01*
X73100000Y-96000000D02*
X73100000Y-92912500D01*
%TO.N,Net-(Q1-S)*%
X106000000Y-71312500D02*
X106000000Y-79600000D01*
X104162500Y-69475000D02*
X106000000Y-71312500D01*
%TO.N,Net-(C14-Pad2)*%
X102287500Y-106075000D02*
X100724000Y-104511500D01*
%TO.N,Net-(C4-Pad1)*%
X74387500Y-94625000D02*
X74387500Y-95740260D01*
X63452760Y-106675000D02*
X59300000Y-106675000D01*
X74387500Y-95740260D02*
X63452760Y-106675000D01*
%TO.N,Net-(C13-Pad1)*%
X93550000Y-89000000D02*
X93550000Y-89050000D01*
X93550000Y-89050000D02*
X88475000Y-94125000D01*
X88475000Y-94125000D02*
X88475000Y-102625000D01*
%TO.N,0*%
X101687500Y-97275000D02*
X95551000Y-91138500D01*
X95551000Y-91138500D02*
X95551000Y-86199000D01*
X95551000Y-86199000D02*
X93152000Y-83800000D01*
X93152000Y-83800000D02*
X87800000Y-83800000D01*
X87800000Y-83800000D02*
X86575000Y-82575000D01*
X86575000Y-82575000D02*
X85737500Y-82575000D01*
X115150000Y-90950000D02*
X115275000Y-90825000D01*
X115275000Y-90825000D02*
X115275000Y-88225000D01*
X115375000Y-103500000D02*
X115375000Y-101025000D01*
X115400000Y-101000000D02*
X115375000Y-101025000D01*
%TO.N,Net-(J4-Pin_1)*%
X115275000Y-83225000D02*
X115275000Y-73975000D01*
X115275000Y-73975000D02*
X117975000Y-71275000D01*
X123475000Y-83225000D02*
X115275000Y-83225000D01*
%TO.N,Net-(J3-Pin_1)*%
X115375000Y-98500000D02*
X123575000Y-98500000D01*
%TO.N,0*%
X104362500Y-106075000D02*
X112800000Y-106075000D01*
X112800000Y-106075000D02*
X115375000Y-103500000D01*
X123475000Y-88225000D02*
X115275000Y-88225000D01*
X123575000Y-103500000D02*
X115375000Y-103500000D01*
X56920000Y-89840000D02*
X56920000Y-95000000D01*
X57400000Y-99325000D02*
X57400000Y-95480000D01*
X57400000Y-95480000D02*
X56920000Y-95000000D01*
X101037500Y-69475000D02*
X95165000Y-69475000D01*
X95165000Y-69475000D02*
X94540000Y-70100000D01*
X78750000Y-90250000D02*
X77000000Y-88500000D01*
X78775000Y-90250000D02*
X78750000Y-90250000D01*
X85737500Y-79000000D02*
X85737500Y-79575056D01*
X85737500Y-82575000D02*
X85737500Y-81675000D01*
X85737500Y-81675000D02*
X84687528Y-80625028D01*
X84687528Y-80625028D02*
X82942000Y-80625028D01*
X77000000Y-76074949D02*
X77874949Y-76074949D01*
X79971000Y-78171000D02*
X79971000Y-79000000D01*
X77874949Y-76074949D02*
X79971000Y-78171000D01*
X77000000Y-75424937D02*
X77000000Y-76074949D01*
X79971000Y-80035050D02*
X79971000Y-79000000D01*
X82942000Y-80625028D02*
X82942000Y-79975017D01*
X82942000Y-79975017D02*
X80946017Y-79975017D01*
X80946017Y-79975017D02*
X79971000Y-79000000D01*
X79762192Y-81925051D02*
X79891994Y-82054853D01*
X79500000Y-81925051D02*
X79762192Y-81925051D01*
%TO.N,Net-(U1-ROUT)*%
X76800040Y-81275040D02*
X76800000Y-81275000D01*
X77000000Y-81275040D02*
X76800040Y-81275040D01*
X76800000Y-81275000D02*
X76050000Y-81275000D01*
X76050000Y-81275000D02*
X75549000Y-81776000D01*
X75549000Y-81776000D02*
X72776000Y-81776000D01*
X72776000Y-81776000D02*
X72000000Y-81000000D01*
%TO.N,Net-(U1-BSR)*%
X77000000Y-80625028D02*
X74099972Y-80625028D01*
X74099972Y-80625028D02*
X73725000Y-81000000D01*
%TD*%
M02*
