%TF.GenerationSoftware,KiCad,Pcbnew,9.0.2*%
%TF.CreationDate,2025-09-10T19:30:47-05:00*%
%TF.ProjectId,EE101_Board,45453130-315f-4426-9f61-72642e6b6963,rev?*%
%TF.SameCoordinates,Original*%
%TF.FileFunction,Soldermask,Top*%
%TF.FilePolarity,Negative*%
%FSLAX46Y46*%
G04 Gerber Fmt 4.6, Leading zero omitted, Abs format (unit mm)*
G04 Created by KiCad (PCBNEW 9.0.2) date 2025-09-10 19:30:47*
%MOMM*%
%LPD*%
G01*
G04 APERTURE LIST*
G04 Aperture macros list*
%AMRoundRect*
0 Rectangle with rounded corners*
0 $1 Rounding radius*
0 $2 $3 $4 $5 $6 $7 $8 $9 X,Y pos of 4 corners*
0 Add a 4 corners polygon primitive as box body*
4,1,4,$2,$3,$4,$5,$6,$7,$8,$9,$2,$3,0*
0 Add four circle primitives for the rounded corners*
1,1,$1+$1,$2,$3*
1,1,$1+$1,$4,$5*
1,1,$1+$1,$6,$7*
1,1,$1+$1,$8,$9*
0 Add four rect primitives between the rounded corners*
20,1,$1+$1,$2,$3,$4,$5,0*
20,1,$1+$1,$4,$5,$6,$7,0*
20,1,$1+$1,$6,$7,$8,$9,0*
20,1,$1+$1,$8,$9,$2,$3,0*%
G04 Aperture macros list end*
%ADD10RoundRect,0.375521X0.751041X-1.657291X0.751041X1.657291X-0.751041X1.657291X-0.751041X-1.657291X0*%
%ADD11RoundRect,0.365389X-5.534611X4.384611X-5.534611X-4.384611X5.534611X-4.384611X5.534611X4.384611X0*%
%ADD12RoundRect,0.383855X0.767707X-1.657160X0.767707X1.657160X-0.767707X1.657160X-0.767707X-1.657160X0*%
%ADD13R,2.350000X1.550000*%
%ADD14C,1.426000*%
%ADD15RoundRect,0.102000X-0.611000X-0.611000X0.611000X-0.611000X0.611000X0.611000X-0.611000X0.611000X0*%
%ADD16R,2.350000X6.000000*%
%ADD17RoundRect,0.249999X0.850001X0.850001X-0.850001X0.850001X-0.850001X-0.850001X0.850001X-0.850001X0*%
%ADD18C,2.200000*%
%ADD19C,1.600000*%
%ADD20RoundRect,0.102000X-1.200000X-1.275000X1.200000X-1.275000X1.200000X1.275000X-1.200000X1.275000X0*%
%ADD21RoundRect,0.102000X-1.450000X-1.275000X1.450000X-1.275000X1.450000X1.275000X-1.450000X1.275000X0*%
%ADD22R,1.200000X2.700000*%
%ADD23R,7.800000X9.600000*%
%ADD24RoundRect,0.250000X-0.400000X-0.625000X0.400000X-0.625000X0.400000X0.625000X-0.400000X0.625000X0*%
%ADD25R,2.100000X2.100000*%
%ADD26C,2.100000*%
G04 APERTURE END LIST*
D10*
%TO.C,Q1*%
X101100000Y-79750000D03*
D11*
X104950000Y-67350000D03*
D12*
X108600000Y-79750000D03*
%TD*%
D13*
%TO.C,D5*%
X94150000Y-77100000D03*
X89850000Y-77100000D03*
%TD*%
D14*
%TO.C,RV1*%
X94540000Y-70100000D03*
X92000000Y-67560000D03*
D15*
X89460000Y-70100000D03*
%TD*%
D16*
%TO.C,C1*%
X79000000Y-65750000D03*
X79000000Y-78450000D03*
%TD*%
D17*
%TO.C,D3*%
X67080000Y-89840000D03*
D18*
X56920000Y-89840000D03*
%TD*%
D19*
%TO.C,J1*%
X58200000Y-81675000D03*
X65200000Y-81675000D03*
D20*
X59000000Y-78000000D03*
X57100000Y-85350000D03*
D21*
X66400000Y-85350000D03*
%TD*%
D17*
%TO.C,D1*%
X67080000Y-68840000D03*
D18*
X56920000Y-68840000D03*
%TD*%
D22*
%TO.C,R1*%
X89650000Y-64100000D03*
X94350000Y-64100000D03*
%TD*%
D23*
%TO.C,C2*%
X87250000Y-92100000D03*
X74750000Y-92100000D03*
%TD*%
D24*
%TO.C,R2*%
X89450000Y-81100000D03*
X92550000Y-81100000D03*
%TD*%
D17*
%TO.C,D2*%
X67080000Y-95000000D03*
D18*
X56920000Y-95000000D03*
%TD*%
D17*
%TO.C,D4*%
X67080000Y-73000000D03*
D18*
X56920000Y-73000000D03*
%TD*%
D25*
%TO.C,J4*%
X123475000Y-83225000D03*
D26*
X115275000Y-83225000D03*
X123475000Y-88225000D03*
X115275000Y-88225000D03*
%TD*%
D25*
%TO.C,J3*%
X123575000Y-98500000D03*
D26*
X115375000Y-98500000D03*
X123575000Y-103500000D03*
X115375000Y-103500000D03*
%TD*%
D19*
%TO.C,J2*%
X58500000Y-103000000D03*
X65500000Y-103000000D03*
%TD*%
M02*
